<?xml version="1.0" encoding="iso-8859-1"?>
<!-- Generator: Adobe Illustrator 19.0.0, SVG Export Plug-In . SVG Version: 6.00 Build 0)  -->
<svg version="1.1" id="Layer_1" xmlns="http://www.w3.org/2000/svg" xmlns:xlink="http://www.w3.org/1999/xlink" x="0px" y="0px"
	 viewBox="0 0 512 512" style="enable-background:new 0 0 512 512;" xml:space="preserve">
<circle style="fill:#90DFAA;" cx="256" cy="256" r="256"/>
<path style="fill:#3AA590;" d="M511.902,263.013L357.483,108.594L234.739,294.5l-79.372,109.799l107.604,107.604
	C398.801,508.271,508.247,398.839,511.902,263.013z"/>
<path style="fill:#324A5E;" d="M337.096,412.444H174.902c-15.193,0-27.51-12.316-27.51-27.51V127.066
	c0-15.193,12.316-27.51,27.51-27.51h162.194c15.193,0,27.51,12.316,27.51,27.51v257.87
	C364.606,400.129,352.29,412.444,337.096,412.444z"/>
<path style="fill:#2B3B4E;" d="M337.096,99.556h-81.67v312.889h81.67c15.193,0,27.51-12.317,27.51-27.51V127.066
	C364.606,111.873,352.29,99.556,337.096,99.556z"/>
<rect x="170.667" y="122.397" style="fill:#B5F1F4;" width="170.667" height="56.889"/>
<g>
	<rect x="255.431" y="122.397" style="fill:#84DBFF;" width="85.907" height="56.889"/>
	<rect x="264.62" y="199.111" style="fill:#84DBFF;" width="31.03" height="28.444"/>
</g>
<rect x="216.35" y="199.111" style="fill:#B5F1F4;" width="31.03" height="28.444"/>
<rect x="312.889" y="199.111" style="fill:#84DBFF;" width="28.444" height="28.444"/>
<g>
	<rect x="170.667" y="199.111" style="fill:#B5F1F4;" width="28.444" height="28.444"/>
	<rect x="216.35" y="238.658" style="fill:#B5F1F4;" width="31.03" height="28.444"/>
</g>
<rect x="264.62" y="238.658" style="fill:#84DBFF;" width="31.03" height="28.444"/>
<rect x="170.667" y="238.658" style="fill:#B5F1F4;" width="28.444" height="28.444"/>
<g>
	<rect x="312.889" y="238.658" style="fill:#84DBFF;" width="28.444" height="28.444"/>
	<rect x="264.62" y="278.187" style="fill:#84DBFF;" width="31.03" height="28.444"/>
</g>
<g>
	<rect x="216.35" y="278.187" style="fill:#B5F1F4;" width="31.03" height="28.444"/>
	<rect x="170.667" y="278.187" style="fill:#B5F1F4;" width="28.444" height="28.444"/>
</g>
<rect x="264.62" y="317.733" style="fill:#84DBFF;" width="31.03" height="28.444"/>
<g>
	<rect x="216.35" y="317.733" style="fill:#B5F1F4;" width="31.03" height="28.444"/>
	<rect x="170.667" y="317.733" style="fill:#B5F1F4;" width="28.444" height="28.444"/>
</g>
<rect x="264.62" y="357.279" style="fill:#84DBFF;" width="31.03" height="28.444"/>
<rect x="216.35" y="357.279" style="fill:#B5F1F4;" width="31.03" height="28.444"/>
<rect x="312.889" y="278.187" style="fill:#FC6F58;" width="28.444" height="107.52"/>
<rect x="170.667" y="357.279" style="fill:#B5F1F4;" width="28.444" height="28.444"/>
<g>
</g>
<g>
</g>
<g>
</g>
<g>
</g>
<g>
</g>
<g>
</g>
<g>
</g>
<g>
</g>
<g>
</g>
<g>
</g>
<g>
</g>
<g>
</g>
<g>
</g>
<g>
</g>
<g>
</g>
</svg>
