<?xml version="1.0" encoding="utf-8"?>
<!-- Generator: Adobe Illustrator 16.0.0, SVG Export Plug-In . SVG Version: 6.00 Build 0)  -->
<!DOCTYPE svg PUBLIC "-//W3C//DTD SVG 1.1//EN" "http://www.w3.org/Graphics/SVG/1.1/DTD/svg11.dtd">
<svg xmlns="http://www.w3.org/2000/svg" xmlns:xlink="http://www.w3.org/1999/xlink" version="1.1" id="Layer_1" x="0px" y="0px" width="512" height="512" viewBox="0 0 512 512" enable-background="new 0 0 512 512" xml:space="preserve">
<g id="sunflower_oil">
	<path fill="#CBD0D8" d="M191.99,64.003c-47.125,0-85.327,38.203-85.327,85.327c0,47.132,38.202,85.334,85.327,85.334   c47.14,0,85.349-38.202,85.349-85.334C277.339,102.206,239.129,64.003,191.99,64.003z M191.99,213.329   c-35.281,0-63.999-28.711-63.999-63.999s28.718-63.999,63.999-63.999c35.296,0,63.999,28.711,63.999,63.999   S227.286,213.329,191.99,213.329z"/>
	<g>
		<path fill="#E5E8EC" d="M319.995,511.995H213.333c0,0-85.342-63.999-85.342-170.669c0-127.997,85.342-223.996,85.342-223.996    V42.668h106.662v74.663c0,0,85.342,95.999,85.342,223.996C405.337,447.996,319.995,511.995,319.995,511.995z"/>
	</g>
	<path fill="#FECD57" d="M127.991,341.326c0,106.67,85.342,170.669,85.342,170.669h106.662c0,0,85.342-63.999,85.342-170.669   c0-22.421-2.625-43.874-6.969-63.998H134.944C130.631,297.452,127.991,318.905,127.991,341.326z"/>
	<path fill="#F5BA45" d="M341.339,415.997c0,5.89-4.781,10.655-10.688,10.655c-5.875,0-10.656-4.766-10.656-10.655   c0-5.891,4.781-10.672,10.656-10.672C336.558,405.325,341.339,410.106,341.339,415.997z"/>
	<path fill="#F5BA45" d="M319.214,458.652c0,5.906-4.75,10.672-10.656,10.672c-5.875,0-10.656-4.766-10.656-10.672   c0-5.875,4.781-10.656,10.656-10.656C314.464,447.996,319.214,452.777,319.214,458.652z"/>
	<g opacity="0.2">
		<path fill="#FFFFFF" d="M319.995,117.331V42.668h-21.344v74.663c0,0,85.342,95.999,85.342,223.996    c0,106.67-85.342,170.669-85.342,170.669h21.344c0,0,85.342-63.999,85.342-170.669    C405.337,213.329,319.995,117.331,319.995,117.331z"/>
	</g>
	<path fill="#424953" d="M319.995,10.669c0-5.891-4.781-10.664-10.656-10.664l0,0h-85.334l0,0h-0.016   c-5.875,0-10.656,4.773-10.656,10.664c0,5.89,4.781,10.664,10.656,10.664h0.016l0,0h85.334l0,0   C315.214,21.333,319.995,16.559,319.995,10.669z"/>
	<g>
		<path fill="#646C77" d="M202.661,10.669v42.663c0,5.891,4.781,10.671,10.672,10.671h96.006c22.844,0,32-53.334,32-53.334H202.661z    "/>
	</g>
</g>
</svg>
