<?xml version="1.0" encoding="iso-8859-1"?>
<!-- Generator: Adobe Illustrator 19.0.0, SVG Export Plug-In . SVG Version: 6.00 Build 0)  -->
<svg version="1.1" id="Layer_1" xmlns="http://www.w3.org/2000/svg" xmlns:xlink="http://www.w3.org/1999/xlink" x="0px" y="0px"
	 viewBox="0 0 512.001 512.001" style="enable-background:new 0 0 512.001 512.001;" xml:space="preserve">
<path style="fill:#F37B2A;" d="M419.62,445.219H92.381c-7.924,0-14.756-5.571-16.353-13.332c-2.441-11.858-3.68-24.228-3.68-36.755
	c0-101.266,82.386-183.652,183.652-183.652c25.006,0,49.163,4.907,71.788,14.592c6.25,2.668,10.256,8.864,10.125,15.657
	c-0.125,6.794-4.353,12.831-10.695,15.272c-13.483,5.19-26.674,13.016-33.593,19.935c-13,13.006-13,34.168,0.006,47.18
	c13,13,34.168,13.006,47.18-0.006c7.614-7.614,18.483-25.837,23.641-44.597c1.619-5.891,6.327-10.429,12.277-11.832
	c5.967-1.353,12.196,0.571,16.266,5.124c30.087,33.647,46.658,77.087,46.658,122.327c0,12.527-1.239,24.897-3.68,36.755
	C434.376,439.648,427.544,445.219,419.62,445.219z"/>
<path style="fill:#D7EBFF;" d="M256.001,133.567c-4.272,0-8.544-1.631-11.804-4.892c-6.521-6.516-6.521-17.092,0-23.609l9.577-9.577
	c1.717-1.717,2.505-4.174,2.119-6.576c-0.392-2.402-1.919-4.483-4.093-5.565l-6.521-3.256c-11.756-5.88-20.021-17.125-22.125-30.092
	c-2.104-12.967,2.185-26.25,11.468-35.533l9.577-9.577c6.521-6.521,17.087-6.521,23.609,0c6.521,6.516,6.521,17.092,0,23.609
	l-9.577,9.577c-1.717,1.717-2.505,4.174-2.119,6.576c0.392,2.402,1.919,4.483,4.093,5.565l6.521,3.256
	c11.756,5.88,20.021,17.125,22.125,30.092s-2.185,26.25-11.468,35.533l-9.577,9.577
	C264.544,131.936,260.273,133.567,256.001,133.567z"/>
<path style="fill:#BDDEFF;" d="M339.49,133.567c-4.272,0-8.544-1.631-11.804-4.892c-6.521-6.516-6.521-17.092,0-23.609l9.577-9.577
	c1.717-1.717,2.505-4.174,2.119-6.576c-0.392-2.402-1.919-4.483-4.093-5.565l-6.521-3.256c-11.756-5.88-20.021-17.125-22.125-30.092
	c-2.104-12.973,2.185-26.256,11.479-35.538l9.56-9.571c6.521-6.521,17.092-6.516,23.614-0.006
	c6.521,6.521,6.521,17.092,0.006,23.614l-9.571,9.577c-1.729,1.723-2.517,4.179-2.13,6.576c0.392,2.402,1.919,4.483,4.093,5.565
	l6.521,3.256c11.756,5.88,20.021,17.125,22.125,30.092s-2.185,26.25-11.468,35.533l-9.577,9.577
	C348.034,131.936,343.762,133.567,339.49,133.567z"/>
<g>
	<path style="fill:#D7EBFF;" d="M172.511,133.567c-4.272,0-8.544-1.631-11.804-4.886c-6.521-6.521-6.521-17.092-0.006-23.614
		l9.571-9.577c1.729-1.723,2.517-4.179,2.13-6.576c-0.392-2.402-1.919-4.483-4.093-5.565l-6.521-3.256
		c-11.756-5.88-20.021-17.125-22.125-30.092s2.185-26.25,11.468-35.533l9.577-9.577c6.521-6.521,17.087-6.521,23.609,0
		c6.521,6.516,6.521,17.092,0,23.609l-9.577,9.577c-1.717,1.717-2.505,4.174-2.119,6.576c0.392,2.402,1.919,4.483,4.093,5.565
		l6.521,3.256c11.756,5.88,20.021,17.125,22.125,30.092c2.104,12.973-2.185,26.256-11.479,35.538l-9.56,9.571
		C181.061,131.936,176.783,133.567,172.511,133.567z"/>
	<path style="fill:#D7EBFF;" d="M172.511,133.567c-4.272,0-8.544-1.631-11.804-4.886c-6.521-6.521-6.521-17.092-0.006-23.614
		l9.571-9.577c1.729-1.723,2.517-4.179,2.13-6.576c-0.392-2.402-1.919-4.483-4.093-5.565l-6.521-3.256
		c-11.756-5.88-20.021-17.125-22.125-30.092s2.185-26.25,11.468-35.533l9.577-9.577c6.521-6.521,17.087-6.521,23.609,0
		c6.521,6.516,6.521,17.092,0,23.609l-9.577,9.577c-1.717,1.717-2.505,4.174-2.119,6.576c0.392,2.402,1.919,4.483,4.093,5.565
		l6.521,3.256c11.756,5.88,20.021,17.125,22.125,30.092c2.104,12.973-2.185,26.256-11.479,35.538l-9.56,9.571
		C181.061,131.936,176.783,133.567,172.511,133.567z"/>
</g>
<path style="fill:#E56722;" d="M419.62,445.219c7.924,0,14.756-5.571,16.353-13.332c2.441-11.858,3.68-24.228,3.68-36.755
	c0-45.24-16.571-88.68-46.658-122.326c-4.07-4.555-10.299-6.478-16.266-5.124c-5.951,1.402-10.657,5.94-12.277,11.832
	c-5.158,18.76-16.027,36.984-23.641,44.597c-13.01,13.01-34.179,13.006-47.18,0.006c-13.006-13.01-13.006-34.174-0.006-47.18
	c6.919-6.919,20.108-14.744,33.593-19.935c6.342-2.44,10.571-8.478,10.695-15.272c0.13-6.794-3.874-12.989-10.125-15.657
	c-22.625-9.686-46.782-14.593-71.788-14.593v233.739H419.62z"/>
<g>
	<path style="fill:#BDDEFF;" d="M267.805,128.675l9.577-9.577c9.283-9.283,13.57-22.565,11.468-35.533s-10.369-24.212-22.125-30.092
		l-6.521-3.256c-2.174-1.082-3.701-3.163-4.093-5.565c-0.386-2.402,0.402-4.858,2.119-6.576l9.577-9.577
		c6.521-6.516,6.521-17.092,0-23.609c-3.261-3.259-7.533-4.89-11.805-4.89v133.565C260.273,133.567,264.544,131.936,267.805,128.675
		z"/>
	<path style="fill:#BDDEFF;" d="M458.886,206.077l-47.223-47.223c-6.521-6.521-17.087-6.521-23.609,0
		c-6.521,6.516-6.521,17.092,0,23.609l11.807,11.807l-35.421,35.422c-6.521,6.516-6.521,17.092,0,23.609
		c6.522,6.522,17.086,6.522,23.609,0l35.421-35.422l11.807,11.807c6.522,6.522,17.086,6.522,23.609,0
		C465.409,223.17,465.409,212.594,458.886,206.077z"/>
</g>
<path style="fill:#FFE0B2;" d="M422.957,512.001H89.044c-6.327,0-12.103-3.571-14.935-9.228l-33.391-66.783
	c-2.587-5.173-2.31-11.321,0.733-16.245c3.043-4.924,8.413-7.918,14.201-7.918h400.696c5.788,0,11.157,2.994,14.201,7.918
	c3.044,4.924,3.32,11.07,0.733,16.245l-33.391,66.783C435.06,508.431,429.284,512.001,422.957,512.001z"/>
<path style="fill:#FECC97;" d="M256.001,512.001h166.957c6.327,0,12.103-3.571,14.935-9.228l33.391-66.783
	c2.587-5.173,2.31-11.321-0.733-16.245c-3.043-4.924-8.413-7.918-14.201-7.918H256.001V512.001z"/>
<path style="fill:#88CC2A;" d="M495.305,445.219H16.696c-9.22,0-16.696-7.475-16.696-16.696l0,0c0-9.22,7.475-16.696,16.696-16.696
	h478.609c9.22,0,16.696,7.475,16.696,16.696l0,0C512.001,437.744,504.525,445.219,495.305,445.219z"/>
<path style="fill:#7FB335;" d="M495.305,411.827H256.001v33.391h239.304c9.22,0,16.696-7.475,16.696-16.696
	C512.001,419.303,504.525,411.827,495.305,411.827z"/>
<path style="fill:#FFC033;" d="M388.008,229.734c-14.948-14.97-40.815-16.339-72.782-3.896
	c-18.031,6.945-34.938,17.219-45.212,27.481c-6.111,6.111-10.774,13.112-14.013,20.591c-7.335,16.929-7.335,36.296,0,53.226
	c3.239,7.48,7.903,14.481,14.013,20.591c26.045,26.023,68.385,26.012,94.408,0c13.134-13.145,26.079-36.998,32.223-59.37
	c0.011-0.033,0.022-0.067,0.033-0.1C405.427,255.601,396.756,238.36,388.008,229.734z"/>
<path style="fill:#F9A926;" d="M396.678,288.257c-0.011,0.033-0.022,0.067-0.033,0.1c-6.144,22.372-19.089,46.225-32.223,59.37
	c-26.023,26.012-68.363,26.023-94.408,0c-6.111-6.111-10.774-13.112-14.013-20.591V273.91c3.239-7.48,7.903-14.481,14.013-20.591
	c10.273-10.262,27.181-20.536,45.212-27.481c31.967-12.444,57.834-11.075,72.782,3.896
	C396.756,238.36,405.427,255.601,396.678,288.257z"/>
<g>
</g>
<g>
</g>
<g>
</g>
<g>
</g>
<g>
</g>
<g>
</g>
<g>
</g>
<g>
</g>
<g>
</g>
<g>
</g>
<g>
</g>
<g>
</g>
<g>
</g>
<g>
</g>
<g>
</g>
</svg>
