<?xml version="1.0" encoding="iso-8859-1"?>
<!-- Generator: Adobe Illustrator 19.0.0, SVG Export Plug-In . SVG Version: 6.00 Build 0)  -->
<svg version="1.1" id="Layer_1" xmlns="http://www.w3.org/2000/svg" xmlns:xlink="http://www.w3.org/1999/xlink" x="0px" y="0px"
	 viewBox="0 0 512 512" style="enable-background:new 0 0 512 512;" xml:space="preserve">
<path style="fill:#F4B759;" d="M48.527,156.818L48.527,156.818c-55.023,56.834-55.023,147.075,0,203.911l0,0
	c7.718,7.973,20.645,7.493,27.752-1.029l0,0c36.853-44.192,85.786-76.688,140.815-93.511l0.004-0.001
	c7.314-2.236,7.314-12.591,0-14.827l0,0c-55.03-16.824-103.964-49.319-140.818-93.512l-0.001-0.001
	C69.171,149.325,56.244,148.846,48.527,156.818z"/>
<path style="fill:#4A5058;" d="M80.684,162.995c-1.485-1.7-2.957-3.411-4.405-5.147l-0.001-0.001
	c-7.106-8.522-20.033-9.001-27.752-1.029l0,0c-55.023,56.834-55.023,147.076,0,203.911l0,0c7.718,7.973,20.645,7.493,27.752-1.029
	l0,0c1.448-1.736,2.921-3.448,4.406-5.148C33.193,299.626,33.193,217.921,80.684,162.995z"/>
<path style="opacity:0.1;enable-background:new    ;" d="M217.096,251.36L217.096,251.36
	c-34.812-10.642-67.179-27.564-95.596-49.744c-15.917,17.183-25.446,36.589-25.446,57.156c0,20.568,9.53,39.975,25.446,57.157
	c28.418-22.179,60.783-39.1,95.593-49.742l0.004-0.001C224.412,263.951,224.412,253.596,217.096,251.36z"/>
<ellipse transform="matrix(-0.0276 -0.9996 0.9996 -0.0276 129.0972 438.4114)" style="fill:#4A5058;" cx="277.785" cy="156.415" rx="75.547" ry="87.452"/>
<ellipse transform="matrix(-0.0276 -0.9996 0.9996 -0.0276 129.0972 438.4114)" style="fill:#F4B759;" cx="277.785" cy="156.415" rx="51.747" ry="59.9"/>
<ellipse transform="matrix(0.1381 -0.9904 0.9904 0.1381 -128.98 547.9109)" style="fill:#4A5058;" cx="250.316" cy="348.062" rx="75.547" ry="55.98"/>
<ellipse transform="matrix(0.1381 -0.9904 0.9904 0.1381 -128.9809 547.9099)" style="fill:#F4B759;" cx="250.315" cy="348.062" rx="51.747" ry="38.343"/>
<path style="opacity:0.1;enable-background:new    ;" d="M260.761,273.244c-30.62-4.269-60.114,25.77-65.875,67.094
	c-1.225,8.788-1.268,17.373-0.298,25.493c28.484,15.115,61.576,26.8,94.481,32.43c8.368-11.414,14.415-26.042,16.704-42.466
	C311.535,314.474,291.383,277.513,260.761,273.244z"/>
<ellipse transform="matrix(0.1381 0.9904 -0.9904 0.1381 669.478 -57.4423)" style="fill:#4A5058;" cx="367.743" cy="355.932" rx="75.547" ry="55.98"/>
<ellipse transform="matrix(0.1381 0.9904 -0.9904 0.1381 669.478 -57.4423)" style="fill:#F4B759;" cx="367.743" cy="355.932" rx="51.747" ry="38.343"/>
<path style="opacity:0.1;enable-background:new    ;" d="M423.187,348.178c-5.761-41.324-35.254-71.362-65.875-67.094
	c-30.62,4.269-50.773,41.229-45.012,82.552c2.019,14.48,6.958,27.563,13.832,38.281c1.506,0.032,3.007,0.049,4.504,0.049
	c33.24,0,64.322-5.221,90.321-15.3C424.151,374.991,425.09,361.827,423.187,348.178z"/>
<path style="fill:#F4B759;" d="M121.326,258.773c0,59.447,119.534,127.558,217.752,127.558s177.654-45.521,162.52-127.558
	c-15.816-85.729-85.776-127.558-162.52-127.558C240.86,131.215,121.326,199.326,121.326,258.773z"/>
<g>
	<path style="fill:#FFFFFF;" d="M325.708,228.257c7.989-44.335,29.934-79.206,57.689-92.122c-14.266-3.28-29.16-4.92-44.32-4.92
		c-6.648,0-13.396,0.322-20.195,0.922c-18.158,22.993-31.326,53.271-37.604,88.113c-6.598,36.614-4.784,74.632,5.244,109.943
		c5.5,19.365,13.462,37.605,23.591,54.29c9.769,1.204,19.467,1.848,28.964,1.848c9.315,0,18.46-0.412,27.373-1.222
		C324.385,338.066,317.369,274.532,325.708,228.257z"/>
	<path style="fill:#FFFFFF;" d="M207.729,243.592c4.004-37.146,18.368-70.578,40.572-95.904
		c-26.782,9.29-51.988,21.917-72.777,36.332c-6.309,17.254-10.62,35.62-12.68,54.731c-3.369,31.242-0.403,62.352,8.3,91.67
		c18.556,13.505,41.037,25.588,65.212,35.036C213.377,329.667,203.071,286.789,207.729,243.592z"/>
</g>
<path style="fill:#4A5058;" d="M154.973,237.904c-3.073,28.498-1.12,56.857,5.777,84.459c6.48,5.361,13.594,10.549,21.225,15.495
	c-1.243-3.402-2.345-6.662-3.244-9.688c-8.552-28.806-11.249-58.604-8.018-88.569c1.965-18.232,6.086-36.018,12.248-52.871
	c0.908-2.493,2.068-5.824,3.445-9.845c-7.859,4.874-15.229,10.002-21.974,15.322C159.849,206.963,156.659,222.278,154.973,237.904z
	 M199.859,242.743c-4.399,40.805,4.175,82.147,24.197,117.613c8.389,3.679,17.037,7.055,25.853,10.061
	c-2.416-2.965-4.768-6.091-6.938-9.308c-22.053-34.391-31.774-75.822-27.371-116.669c3.814-35.391,17.182-67.043,38.65-91.529
	c2.837-3.231,5.994-6.645,9.312-10.108c-10.122,2.961-20.094,6.43-29.786,10.312C215.156,178.302,203.495,209.008,199.859,242.743z
	 M294.137,328.031c-9.701-34.156-11.455-70.941-5.069-106.377c5.957-33.049,18.414-62.308,36.069-84.663
	c1.416-1.825,2.959-3.689,4.595-5.575c-7.135,0.303-14.358,0.953-21.615,1.904c-16.804,23.435-28.734,52.817-34.629,85.526
	c-6.811,37.796-4.936,77.046,5.42,113.509c5.063,17.827,12.187,34.85,21.194,50.698c6.791,1.097,13.568,1.941,20.29,2.493
	c-1.237-1.783-2.443-3.554-3.584-5.291C307.021,364.109,299.393,346.539,294.137,328.031z M386.64,143.357
	c3.166-1.367,6.354-2.627,9.521-3.791c-8.054-2.489-16.356-4.422-24.84-5.796c-26.094,16.635-45.743,50.565-53.403,93.083
	c-3.33,18.478-5.77,47.567,1.522,81.218c6.445,29.739,18.947,55.867,37.185,77.761c6.944-0.396,13.762-1.033,20.431-1.9
	c-1.743-1.41-3.38-2.844-4.891-4.306c-18.431-20.687-30.964-45.887-37.253-74.908c-5.26-24.276-5.764-50.932-1.415-75.058
	C340.959,188.258,361.316,155.202,386.64,143.357z"/>
<path style="opacity:0.1;enable-background:new    ;" d="M244.213,273.484l-39.351,43.083c-4.705,3.909-11.7,3.209-15.537-1.556l0,0
	c-19.454-24.155-19.454-58.599,0-82.754l0,0c3.837-4.764,10.832-5.464,15.537-1.556l39.351,13.531
	C253.364,251.836,253.364,265.88,244.213,273.484z"/>
<path style="fill:#F4B759;" d="M245.003,272.301l-34.074,28.307c-4.705,3.909-11.7,3.209-15.537-1.556l0,0
	c-19.454-24.155-19.454-58.599,0-82.754l0,0c3.837-4.764,10.831-5.464,15.537-1.556l34.074,28.307
	C254.155,250.652,254.155,264.698,245.003,272.301z"/>
<path style="opacity:0.05;enable-background:new    ;" d="M245.003,272.301l-34.074,28.307c-4.705,3.909-11.7,3.209-15.537-1.556
	l0,0c-19.454-24.155-19.454-58.599,0-82.754l0,0c3.837-4.764,10.831-5.464,15.537-1.556l34.074,28.307
	C254.155,250.652,254.155,264.698,245.003,272.301z"/>
<path style="fill:#4A5058;" d="M215.591,218.616l-4.662-3.873c-4.705-3.909-11.7-3.209-15.537,1.556l0,0
	c-19.454,24.155-19.454,58.599,0,82.754l0,0c3.837,4.764,10.831,5.464,15.537,1.556l4.662-3.872
	C198.517,273.515,198.517,241.835,215.591,218.616z"/>
<path d="M510.039,257.338c-7.816-42.366-29.094-77.253-61.535-100.889c-23.061-16.804-50.837-27.464-81.432-31.414
	c-6.771-14.842-18.505-27.895-33.505-37.107c-16.847-10.346-36.688-15.522-57.421-14.94c-25.25,0.697-48.806,9.893-66.328,25.893
	c-17.843,16.294-27.327,37.664-26.706,60.171c0.095,3.441,0.467,6.893,1.052,10.323c-18.155,11.104-33.137,23.041-44.522,35.301
	c-21.112-14.701-40.142-32.129-56.629-51.897c-4.822-5.784-11.905-9.261-19.431-9.541c-7.515-0.285-14.848,2.664-20.088,8.075
	C15.447,180.284,0,218.448,0,258.773c0,40.325,15.447,78.489,43.496,107.461c5.011,5.176,11.928,8.094,19.106,8.093
	c0.327,0,0.654-0.005,0.983-0.018c7.526-0.28,14.609-3.757,19.432-9.54c16.485-19.768,35.516-37.197,56.629-51.898
	c11.926,12.843,27.799,25.332,47.133,36.88c-0.81,18.865,3.317,37.01,11.829,51.566c9.739,16.653,24.249,27.099,40.858,29.414
	c2.339,0.327,4.671,0.487,6.995,0.487c22.399-0.002,43.766-14.898,56.825-39.782c3.235,0.479,6.454,0.897,9.653,1.255
	c12.424,28.616,35.54,46.367,59.993,46.367c2.321,0,4.656-0.159,6.994-0.487c25.89-3.611,46.103-27.255,51.425-59.497
	c24.535-9.277,44.605-22.592,58.587-39.39C508.837,316.979,515.788,288.504,510.039,257.338z M220.494,110.57
	c14.716-13.438,34.635-21.166,56.089-21.758c29.927-0.841,57.544,12.98,71.626,34.654c-2.806-0.108-5.631-0.167-8.474-0.167
	c-1.727,0-3.466,0.026-5.213,0.068c-12.804-17.145-34.741-27.225-58.376-26.587c-17.893,0.494-34.599,7.024-47.042,18.387
	c-11.966,10.927-18.676,25.069-19.101,40.095c-3.692,1.794-7.344,3.649-10.94,5.574c-0.05-0.741-0.103-1.483-0.125-2.223
	C198.445,140.777,206.1,123.715,220.494,110.57z M314.026,124.741c-28.522,3.077-58.655,11.012-87.053,22.864
	c1.947-7.672,6.315-14.817,12.807-20.746c9.637-8.801,22.708-13.862,36.803-14.252C290.833,112.215,304.184,116.7,314.026,124.741z
	 M62.997,358.489c-3.126,0.101-5.977-1.045-8.126-3.267c-25.175-26.004-39.04-60.257-39.04-96.449
	c0-36.193,13.864-70.446,39.039-96.449c2.149-2.222,5.023-3.385,8.125-3.267c2.989,0.111,5.694,1.407,7.66,3.642
	c-21.648,27.227-33.506,61.094-33.506,96.074c0,34.977,11.858,68.846,33.506,96.073C68.69,357.082,65.986,358.378,62.997,358.489z
	 M129.537,300.623c-17.533,12.319-33.691,26.428-48.234,42.13c-18.316-24.038-28.323-53.537-28.323-83.979
	c0-30.443,10.007-59.943,28.323-83.98c14.543,15.701,30.701,29.81,48.233,42.13c-10.109,14.006-15.47,28.201-15.47,41.85
	C114.067,272.422,119.428,286.618,129.537,300.623z M158.524,309.367c-18.372-17.137-28.626-34.82-28.626-50.594
	c0-16.567,11.311-35.241,31.462-53.176c-2.614,10.563-4.548,21.357-5.729,32.306C153.039,261.946,154.014,285.891,158.524,309.367z
	 M197.999,337.997c-6.909-4.009-13.36-8.146-19.331-12.37c-7.966-28.017-10.433-56.943-7.296-86.028
	c1.877-17.405,5.738-34.394,11.441-50.552c4.782-3.23,9.849-6.402,15.186-9.498c9.127-5.295,18.669-10.137,28.458-14.494
	c-7.463,12.202-13.538,25.544-18.003,39.64c-1.864-0.387-3.797-0.498-5.75-0.304c-5.07,0.508-9.622,2.972-12.819,6.942
	c-10.538,13.083-16.34,29.542-16.34,46.341c0,16.801,5.803,33.259,16.34,46.343c3.197,3.968,7.75,6.434,12.82,6.941
	c0.641,0.064,1.281,0.096,1.917,0.096c0.159,0,0.316-0.017,0.475-0.02c3.234,13.121,7.792,25.786,13.624,37.892
	C211.636,345.535,204.706,341.888,197.999,337.997z M217.671,230.088l22.932,19.051c2.546,2.115,4.006,5.227,4.006,8.536
	c0,3.311-1.461,6.422-4.006,8.537l-22.932,19.051C208.297,268.018,208.298,247.332,217.671,230.088z M205.097,295.175
	c-0.326,0.055-0.613,0.052-0.816,0.031c-0.474-0.048-1.372-0.255-2.068-1.119c-16.993-21.098-16.993-51.726,0-72.823
	c0.696-0.863,1.594-1.072,2.067-1.12c0.087-0.008,0.189-0.015,0.302-0.015c0.151,0,0.327,0.018,0.513,0.049
	C191.362,243.373,191.363,271.98,205.097,295.175z M241.649,415.052c-21.898-3.053-37.709-26.852-39.059-56.486
	c0.504,0.262,1.01,0.52,1.517,0.78c2.366,25.579,17.546,44.962,37.987,47.81c1.658,0.232,3.319,0.345,4.98,0.345
	c13.237,0,26.292-7.253,35.757-19.841c1.303,0.287,2.606,0.562,3.907,0.831C275.411,406.905,258.159,417.346,241.649,415.052z
	 M221.718,367.7c14.266,6.246,29.031,11.497,43.861,15.644c-6.422,6.112-14.037,9.14-21.301,8.133
	C233.937,390.034,225.48,380.69,221.718,367.7z M242.338,359.048c-10.568-16.975-18.164-35.413-22.609-54.916l30.99-25.744
	c6.177-5.132,9.721-12.682,9.721-20.714c0-8.031-3.543-15.581-9.721-20.713l-28.367-23.566
	c6.448-22.191,17.187-42.441,31.257-58.956c16.339-5.537,32.959-9.683,49.202-12.253c-13.678,21.812-23.494,47.959-28.667,76.66
	c-6.811,37.796-4.936,77.046,5.42,113.509c4.133,14.551,9.639,28.564,16.419,41.841C278.156,370.914,259.989,365.78,242.338,359.048
	z M315.604,377.063c-8.885-15.263-15.895-31.73-20.809-49.033c-9.701-34.156-11.455-70.941-5.069-106.377
	c5.72-31.74,17.452-59.965,33.972-81.909c5.432-0.401,10.79-0.614,16.037-0.614c7.892,0,15.624,0.455,23.169,1.343
	c-21.544,18.179-37.584,48.947-44.329,86.379c-3.33,18.478-5.769,47.568,1.523,81.218c5.711,26.356,16.191,49.868,31.196,70.119
	c-3.812,0.148-7.666,0.224-11.559,0.224C331.9,378.415,323.824,377.949,315.604,377.063z M377.739,422.892
	c-17.288,2.406-35.207-9.099-46.434-28.811c0.994,0.038,1.984,0.066,2.973,0.091c9.531,13.414,22.998,21.171,36.705,21.171
	c1.664,0,3.333-0.113,4.997-0.346c14.766-2.059,27.037-12.787,33.528-29.029c1.485-0.383,2.963-0.775,4.423-1.183
	C408.156,405.782,394.517,420.552,377.739,422.892z M355.623,393.846c11.518-0.567,22.622-1.751,33.235-3.527
	c-4.143,5.013-9.334,8.199-15.062,8.998C367.664,400.16,361.31,398.146,355.623,393.846z M477.77,329.557
	c-21.069,25.31-60.034,42.17-107.384,47.243c-17.096-20.142-28.809-44.364-34.816-72.08c-5.26-24.276-5.763-50.931-1.415-75.058
	c7.239-40.174,26.62-72.488,50.9-85.192c20.053,4.946,38.344,13.274,54.127,24.774c29.104,21.205,48.222,52.661,55.288,90.966
	C499.409,286.98,493.789,310.31,477.77,329.557z M477.512,239.052c-4.373,0-7.916,3.543-7.916,7.916v11.788
	c0,4.373,3.543,7.916,7.916,7.916c4.373,0,7.916-3.543,7.916-7.916v-11.788C485.428,242.595,481.884,239.052,477.512,239.052z
	 M447.248,247.333c-4.373,0-7.916,3.543-7.916,7.916c0,1.675-1.363,3.038-3.038,3.038c-1.674,0-3.036-1.363-3.036-3.038
	c0-4.373-3.543-7.916-7.916-7.916c-4.373,0-7.916,3.543-7.916,7.916c0,1.675-1.363,3.038-3.038,3.038s-3.038-1.363-3.038-3.038
	c0-4.373-3.544-7.916-7.916-7.916c-4.373,0-7.916,3.543-7.916,7.916c0,10.405,8.465,18.869,18.869,18.869
	c4.08,0,7.863-1.301,10.953-3.513c3.09,2.211,6.872,3.513,10.952,3.513c10.405,0,18.869-8.464,18.869-18.869
	C455.164,250.877,451.619,247.333,447.248,247.333z M367.635,233.405c-10.729,0-19.456,8.728-19.456,19.457
	c0,4.373,3.543,7.916,7.916,7.916c4.372,0,7.916-3.543,7.916-7.916c0-1.999,1.626-3.625,3.624-3.625
	c1.999,0,3.625,1.626,3.625,3.625c0,4.373,3.543,7.916,7.916,7.916c4.373,0,7.916-3.543,7.916-7.916
	C387.092,242.134,378.363,233.405,367.635,233.405z"/>
<g>
</g>
<g>
</g>
<g>
</g>
<g>
</g>
<g>
</g>
<g>
</g>
<g>
</g>
<g>
</g>
<g>
</g>
<g>
</g>
<g>
</g>
<g>
</g>
<g>
</g>
<g>
</g>
<g>
</g>
</svg>
