<?xml version="1.0" encoding="iso-8859-1"?>
<!-- Generator: Adobe Illustrator 19.0.0, SVG Export Plug-In . SVG Version: 6.00 Build 0)  -->
<svg version="1.1" id="Layer_1" xmlns="http://www.w3.org/2000/svg" xmlns:xlink="http://www.w3.org/1999/xlink" x="0px" y="0px"
	 viewBox="0 0 512 512" style="enable-background:new 0 0 512 512;" xml:space="preserve">
<path style="fill:#9E9D9D;" d="M463.026,503.096c0,4.917-3.987,8.904-8.904,8.904H57.878c-4.917,0-8.904-3.987-8.904-8.904
	c0-4.917,3.987-8.904,8.904-8.904h396.243C459.04,494.191,463.026,498.178,463.026,503.096z"/>
<path style="fill:#CAEEC5;" d="M512,109.162v83.477c0,137.738-115.197,250.436-255.998,250.436l0,0
	C115.2,443.075,0,330.378,0,192.64v-83.478H512z"/>
<path style="fill:#97BAA8;" d="M478.609,109.162H512v83.477c0,137.738-115.197,250.436-255.998,250.436S0,330.378,0,192.64v-83.478
	h33.391v83.477c0,119.679,99.862,217.045,222.61,217.045c122.746,0,222.608-97.366,222.608-217.045V109.162z"/>
<path style="fill:#B93B3E;" d="M375.653,281.412l-43.945,68.273c-16.804,26.101-44.222,43.543-73.475,32.524l-20.292-7.649
	c-29.256-11.022-37.966-42.069-32.915-72.605l13.198-79.854c2.785-16.817,24.346-23.981,40.457-17.91l98.846,37.242
	C373.645,247.502,384.903,267.036,375.653,281.412z M165.389,45.017c-1.961-11.432-16.673-16.223-27.616-12.025l-67.127,25.76
	C59.705,62.95,52.119,76.294,58.479,86.044l30.207,46.291c11.549,17.702,30.28,29.459,50.144,21.835l13.785-5.288
	c19.87-7.625,25.661-28.798,22.099-49.558L165.389,45.017z"/>
<path style="fill:#234848;" d="M153.752,271.212c0,20.697-16.978,37.473-37.919,37.473c-20.942,0-37.92-16.776-37.92-37.473
	c0-20.696,16.978-37.473,37.919-37.473C136.774,233.739,153.752,250.516,153.752,271.212z M402.882,43.579
	c-20.945,0-37.919,16.777-37.919,37.472c0,20.696,16.975,37.473,37.919,37.473c20.942,0,37.919-16.777,37.919-37.473
	C440.801,60.356,423.822,43.579,402.882,43.579z"/>
<path style="fill:#FF4328;" d="M434.087,196.149c0,4.917-3.987,8.904-8.904,8.904h-2.411c-4.917,0-8.904-3.987-8.904-8.904
	s3.987-8.904,8.904-8.904h2.411C430.101,187.245,434.087,191.232,434.087,196.149z M260.654,60.104h-2.411
	c-4.917,0-8.904,3.987-8.904,8.904c0,4.917,3.987,8.904,8.904,8.904h2.411c4.917,0,8.904-3.987,8.904-8.904
	C269.558,64.091,265.572,60.104,260.654,60.104z M71.44,183.565h-2.411c-4.917,0-8.904,3.987-8.904,8.904
	c0,4.917,3.987,8.904,8.904,8.904h2.411c4.917,0,8.904-3.987,8.904-8.904C80.344,187.552,76.358,183.565,71.44,183.565z M324.784,0
	h-2.411c-4.917,0-8.904,3.987-8.904,8.904s3.987,8.904,8.904,8.904h2.411c4.917,0,8.904-3.987,8.904-8.904S329.701,0,324.784,0z"/>
<path style="fill:#5B7F81;" d="M123.983,264.7c0,8.961-7.352,16.225-16.42,16.225s-16.42-7.264-16.42-16.225
	c0-8.962,7.352-16.226,16.42-16.226S123.983,255.737,123.983,264.7z M394.854,55.652c-9.068,0-16.42,7.265-16.42,16.226
	s7.352,16.225,16.42,16.225s16.42-7.264,16.42-16.225C411.273,62.917,403.921,55.652,394.854,55.652z"/>
<path style="fill:#9A1F2A;" d="M375.653,281.412l-43.945,68.273c-16.804,26.101-44.222,43.543-73.475,32.524l-20.292-7.649
	c-23.363-8.802-33.613-30.375-34.226-54.26c6.12,1.623,12.434,2.482,18.894,2.482c44.555,0,82.31-40.405,95.322-96.268
	l39.595,14.918C373.645,247.502,384.903,267.036,375.653,281.412z M94.717,49.515l-24.07,9.237
	C59.705,62.95,52.119,76.294,58.479,86.044l30.207,46.291c11.549,17.702,30.28,29.459,50.144,21.835l13.785-5.288
	c6.122-2.349,10.902-5.987,14.49-10.5C133.011,125.063,105.971,91.797,94.717,49.515z"/>
<path style="fill:#7E9332;" d="M354.439,188.162l-34.411,48.024c-0.033,0.046-0.067,0.092-0.101,0.138
	c-3.019,4.047-7.771,6.308-12.64,6.308c-1.845,0-3.705-0.324-5.495-0.998c-6.616-2.492-10.771-9.149-10.104-16.186
	c0.018-0.183,0.04-0.364,0.069-0.544l12.059-76.642c0.765-4.857,5.315-8.176,10.18-7.412c4.857,0.765,8.176,5.323,7.412,10.18
	l-10.616,67.473l29.171-40.713c2.864-3.998,8.426-4.916,12.425-2.052C356.384,178.602,357.303,184.164,354.439,188.162z
	 M143.438,1.863c-3.889-3.01-9.482-2.297-12.492,1.592L103.233,39.25c-0.577,0.746-1.346,1.318-2.226,1.654
	c-0.873,0.335-1.82,0.425-2.738,0.263l-44.961-7.943c-4.843-0.857-9.462,2.377-10.318,7.219c-0.856,4.842,2.376,9.462,7.219,10.318
	l44.961,7.943c1.323,0.235,2.659,0.349,3.992,0.349c2.799,0,5.586-0.512,8.22-1.522c3.926-1.506,7.361-4.058,9.933-7.382
	l27.713-35.795C148.038,10.467,147.327,4.874,143.438,1.863z"/>
<g>
</g>
<g>
</g>
<g>
</g>
<g>
</g>
<g>
</g>
<g>
</g>
<g>
</g>
<g>
</g>
<g>
</g>
<g>
</g>
<g>
</g>
<g>
</g>
<g>
</g>
<g>
</g>
<g>
</g>
</svg>
