<?xml version="1.0" encoding="iso-8859-1"?>
<!-- Generator: Adobe Illustrator 19.0.0, SVG Export Plug-In . SVG Version: 6.00 Build 0)  -->
<svg version="1.1" id="Layer_1" xmlns="http://www.w3.org/2000/svg" xmlns:xlink="http://www.w3.org/1999/xlink" x="0px" y="0px"
	 viewBox="0 0 512 512" style="enable-background:new 0 0 512 512;" xml:space="preserve">
<circle style="fill:#324A5E;" cx="256" cy="256" r="256"/>
<path style="fill:#2B3B4E;" d="M512,256c0-0.876-0.024-1.746-0.033-2.62L354.254,95.811L218.65,290.478l-60.787,105.427
	l116.172,115.453C407.004,502.101,512,391.32,512,256z"/>
<path style="fill:#F9B54C;" d="M338.965,402.244H173.037c-11.781,0-21.333-9.55-21.333-21.333V110.689
	c0-11.781,9.55-21.333,21.333-21.333h165.928c11.781,0,21.333,9.55,21.333,21.333v270.224
	C360.298,392.694,350.746,402.244,338.965,402.244z"/>
<path style="fill:#F4A200;" d="M338.965,89.355h-82.963v312.889h82.963c11.781,0,21.333-9.55,21.333-21.333V110.689
	C360.298,98.907,350.746,89.355,338.965,89.355z"/>
<rect x="170.667" y="108.318" style="fill:#90DFAA;" width="170.667" height="69.525"/>
<rect x="256" y="108.318" style="fill:#70C187;" width="85.333" height="69.525"/>
<g>
	<rect x="170.667" y="206.3" style="fill:#E6F3FF;" width="33.185" height="29.636"/>
	<rect x="170.667" y="252.104" style="fill:#E6F3FF;" width="33.185" height="29.636"/>
	<rect x="170.667" y="296.546" style="fill:#E6F3FF;" width="33.185" height="29.636"/>
	<rect x="170.667" y="341.006" style="fill:#E6F3FF;" width="33.185" height="29.636"/>
	<rect x="216.488" y="206.3" style="fill:#E6F3FF;" width="33.185" height="29.636"/>
	<rect x="216.488" y="252.104" style="fill:#E6F3FF;" width="33.185" height="29.636"/>
	<rect x="216.488" y="296.546" style="fill:#E6F3FF;" width="33.185" height="29.636"/>
	<rect x="216.488" y="341.006" style="fill:#E6F3FF;" width="33.185" height="29.636"/>
	<rect x="262.327" y="206.3" style="fill:#E6F3FF;" width="33.185" height="29.636"/>
	<rect x="262.327" y="252.104" style="fill:#E6F3FF;" width="33.185" height="29.636"/>
	<rect x="262.327" y="296.546" style="fill:#E6F3FF;" width="33.185" height="29.636"/>
	<rect x="262.327" y="341.006" style="fill:#E6F3FF;" width="33.185" height="29.636"/>
	<rect x="308.148" y="206.3" style="fill:#E6F3FF;" width="33.185" height="29.636"/>
	<rect x="308.148" y="252.104" style="fill:#E6F3FF;" width="33.185" height="29.636"/>
	<rect x="308.148" y="296.546" style="fill:#E6F3FF;" width="33.185" height="29.636"/>
	<rect x="308.148" y="341.006" style="fill:#E6F3FF;" width="33.185" height="29.636"/>
</g>
<g>
</g>
<g>
</g>
<g>
</g>
<g>
</g>
<g>
</g>
<g>
</g>
<g>
</g>
<g>
</g>
<g>
</g>
<g>
</g>
<g>
</g>
<g>
</g>
<g>
</g>
<g>
</g>
<g>
</g>
</svg>
