<?xml version="1.0" encoding="iso-8859-1"?>
<!-- Generator: Adobe Illustrator 19.0.0, SVG Export Plug-In . SVG Version: 6.00 Build 0)  -->
<svg version="1.1" id="Layer_1" xmlns="http://www.w3.org/2000/svg" xmlns:xlink="http://www.w3.org/1999/xlink" x="0px" y="0px"
	 viewBox="0 0 512 512" style="enable-background:new 0 0 512 512;" xml:space="preserve">
<g>
	<rect x="185.946" y="409.58" style="fill:#E4EAF5;" width="140.122" height="95.009"/>
	<path style="fill:#E4EAF5;" d="M286.081,79.886h-60.164c0,62.509-39.976,74.537-39.976,126.142v21.397h140.117v-21.397
		C326.058,154.423,286.081,142.395,286.081,79.886z"/>
</g>
<rect x="185.946" y="224.376" style="fill:#FF6465;" width="140.122" height="188.241"/>
<ellipse style="fill:#F2E9DC;" cx="256.002" cy="288.43" rx="19.56" ry="30.068"/>
<path style="opacity:0.1;fill:#171D26;enable-background:new    ;" d="M286.081,79.886h-60.164c0,25.244-6.52,42.253-14.295,56.963
	c4.28,2.237,9.14,3.51,14.295,3.51h60.163c5.154,0,10.015-1.273,14.295-3.509C292.603,122.14,286.081,105.131,286.081,79.886z"/>
<path style="fill:#FF6465;" d="M286.081,7.819h-60.163c-4.208,0-7.617,3.409-7.617,7.617v93.947c0,4.208,3.409,7.617,7.617,7.617
	h60.163c4.208,0,7.617-3.409,7.617-7.617V15.436C293.698,11.228,290.289,7.819,286.081,7.819z"/>
<path style="opacity:0.2;fill:#171D26;enable-background:new    ;" d="M218.441,206.028c0-30.764,14.207-47.466,25.682-69.179
	c3.708-6.98,6.893-14.224,9.239-21.779c-1.568-1.395-2.561-3.423-2.561-5.686V15.436c0-4.208,3.409-7.617,7.617-7.617h-32.499
	c-4.208,0-7.617,3.409-7.617,7.617v93.947c0,2.264,0.993,4.291,2.561,5.686c-2.346,7.555-5.531,14.799-9.239,21.779
	c-11.475,21.714-25.682,38.415-25.682,69.179v206.593v91.962h32.499v-91.962V206.028z"/>
<path d="M256.001,333.734c15.24,0,27.177-16.553,27.177-37.685c0-21.132-11.937-37.684-27.177-37.684
	c-15.24,0-27.178,16.553-27.178,37.684C228.822,317.181,240.76,333.734,256.001,333.734z M256.001,273.599
	c5.638,0,11.943,9.6,11.943,22.45c0,12.849-6.306,22.451-11.943,22.451c-5.639,0-11.944-9.601-11.944-22.451
	C244.056,283.199,250.362,273.599,256.001,273.599z"/>
<path d="M215.12,387.702h81.761c4.207,0,7.617-3.409,7.617-7.617c0-4.208-3.41-7.617-7.617-7.617H215.12
	c-4.207,0-7.617,3.409-7.617,7.617C207.503,384.293,210.913,387.702,215.12,387.702z"/>
<path d="M215.12,357.829h81.761c4.207,0,7.617-3.409,7.617-7.617c0-4.208-3.41-7.617-7.617-7.617H215.12
	c-4.207,0-7.617,3.409-7.617,7.617C207.503,354.42,210.913,357.829,215.12,357.829z"/>
<path d="M333.675,224.176v-18.349c0-6.846-0.649-13.284-1.984-19.682c-0.859-4.118-4.898-6.752-9.012-5.901
	c-4.118,0.859-6.76,4.894-5.901,9.012c1.119,5.361,1.663,10.782,1.663,16.569v10.732H193.559v-10.732
	c0-22.518,8.121-36.499,17.523-52.689c5.113-8.804,10.368-17.854,14.536-28.726c0.101,0.002,0.201,0.003,0.301,0.003h60.163
	c0.101,0,0.201-0.001,0.301-0.003c4.168,10.876,9.426,19.929,14.54,28.735l1.644,2.837c2.104,3.643,6.764,4.888,10.406,2.785
	c3.642-2.104,4.889-6.763,2.785-10.406l-1.661-2.865c-5.233-9.011-10.611-18.317-14.491-29.333c1.086-2.094,1.71-4.466,1.71-6.983
	V15.234c0-8.4-6.834-15.234-15.234-15.234h-60.163c-8.4,0-15.234,6.834-15.234,15.234v93.947c0,2.518,0.625,4.889,1.71,6.983
	c-3.879,11.011-9.255,20.315-14.486,29.323c-9.628,16.578-19.584,33.72-19.584,60.34v18.349V412.42v27.463
	c0,4.208,3.41,7.617,7.617,7.617c4.207,0,7.617-3.409,7.617-7.617v-19.846h124.883v76.729H193.559v-21.338
	c0-4.208-3.41-7.617-7.617-7.617c-4.207,0-7.617,3.409-7.617,7.617v28.955c0,4.208,3.41,7.617,7.617,7.617h140.117
	c4.207,0,7.617-3.409,7.617-7.617V412.42c0-0.003,0-0.006,0-0.01V224.186C333.674,224.183,333.675,224.18,333.675,224.176z
	 M225.919,15.234h60.163l0.01,93.939c-0.003,0.003-0.007,0.005-0.01,0.008l-60.154-0.003c-0.003-0.002-0.006-0.004-0.009-0.007
	L225.919,15.234L225.919,15.234z M318.44,404.803H193.559v-173.01H318.44V404.803z"/>
<g>
</g>
<g>
</g>
<g>
</g>
<g>
</g>
<g>
</g>
<g>
</g>
<g>
</g>
<g>
</g>
<g>
</g>
<g>
</g>
<g>
</g>
<g>
</g>
<g>
</g>
<g>
</g>
<g>
</g>
</svg>
