<?xml version="1.0" encoding="iso-8859-1"?>
<!-- Generator: Adobe Illustrator 19.0.0, SVG Export Plug-In . SVG Version: 6.00 Build 0)  -->
<svg version="1.1" id="Layer_1" xmlns="http://www.w3.org/2000/svg" xmlns:xlink="http://www.w3.org/1999/xlink" x="0px" y="0px"
	 viewBox="0 0 164 164" style="enable-background:new 0 0 164 164;" xml:space="preserve">
<g>
	<g>
		<g>
			<g>
				<g>
					<path style="fill:#FFB000;" d="M63.952,108.76c1.259,3.798,3.949,7.457,6.394,10.239c0.358,0.405,0.717,0.793,1.133,1.144
						c3.286,2.758,5.069,4.353,7.66,5.703c0.253,0.179,0.506,0.354,0.778,0.543c5.58,3.83,13.456,4.65,19.896,3.079
						c6.748-1.644,12.637-5.952,16.248-11.89c3.007-4.944,4.248-10.773,3.633-16.484c-0.068-1.128-0.218-2.25-0.432-3.358
						c3.7-1.392,7.289-2.856,10.697-4.214c6.726,12.105,6.952,27.373-0.758,40.05c-11.425,18.787-35.914,24.757-54.699,13.333
						c-12.955-7.879-19.81-21.966-19.078-36.113C58.338,110.46,61.201,109.771,63.952,108.76z"/>
				</g>
				<g>
					<path style="fill:#FF9600;" d="M129.673,107.35c-3.379,0.223-6.764,0.398-10.145,0.558c0.346-2.246,0.41-4.536,0.166-6.813
						c-0.068-1.128-0.218-2.25-0.432-3.358c3.7-1.392,7.289-2.856,10.697-4.214c2.327,4.188,3.852,8.758,4.556,13.465
						C132.903,107.12,131.287,107.245,129.673,107.35z"/>
				</g>
			</g>
			<g>
				<g>
					<path style="fill:#FFD01F;" d="M76.053,136.307c3.114,2.648,7.405,4.412,11.015,5.545c0.529,0.163,1.049,0.312,1.599,0.396
						c4.333,0.664,6.733,1.107,9.712,0.912c0.313,0.02,0.627,0.04,0.964,0.061c6.902,0.382,14.213-3.083,19-7.874
						c5.017-5.015,7.871-11.9,7.871-18.997c0-5.914-2.009-11.658-5.577-16.314c-0.659-0.952-1.385-1.852-2.159-2.704
						c2.49-3.179,4.848-6.363,7.101-9.355c12.295,6.993,20.594,20.202,20.594,35.356c0,22.461-18.207,40.667-40.667,40.667
						c-15.485,0-28.945-8.658-35.814-21.394C72.055,140.77,74.189,138.649,76.053,136.307z"/>
				</g>
				<g>
					<path style="fill:#FF9600;" d="M132.664,100.199c-2.831,1.989-5.69,3.934-8.557,5.869c-0.892-2.144-2.05-4.18-3.472-6.032
						c-0.659-0.952-1.385-1.852-2.159-2.704c2.49-3.179,4.848-6.363,7.101-9.355c4.253,2.42,8.01,5.601,11.121,9.337
						C135.36,98.284,134.018,99.249,132.664,100.199z"/>
				</g>
			</g>
		</g>
	</g>
	<g>
		<g>
			<rect x="17.827" y="36" style="fill:#C8C8C8;" width="67" height="128"/>
		</g>
		<g>
			<rect x="17.827" y="36" style="fill:#DEDEDE;" width="33" height="128"/>
		</g>
		<g>
			<rect x="25.827" y="36" style="fill:#E9E9E9;" width="52" height="111"/>
		</g>
		<g>
			<rect x="25.827" y="66" style="fill:#FFD01F;" width="52" height="81"/>
		</g>
		<g>
			<path style="fill:#FFFFFF;" d="M70.827,117.744c0,1.798-1.567,3.256-3.5,3.256l0,0c-1.933,0-3.5-1.458-3.5-3.256V77.256
				c0-1.798,1.567-3.256,3.5-3.256l0,0c1.933,0,3.5,1.458,3.5,3.256V117.744z"/>
		</g>
		<g>
			<circle style="fill:#FFFFFF;" cx="67.023" cy="129.124" r="3.658"/>
		</g>
		<g>
			<g>
				<path style="fill:#FFFFFF;" d="M54.827,66h-8V16.57C46.827,7.123,54.252,0,64.098,0h31.73v8h-31.73
					c-5.458,0-9.27,3.524-9.27,8.57L54.827,66L54.827,66z"/>
			</g>
			<g>
				<path style="fill:#DF1700;" d="M54.827,66h-8V54h8V66z M54.827,44h-8V32h8V44z M54.827,22h-8v-5.43
					c0-2.817,0.633-5.445,1.881-7.811l7.076,3.731c-0.635,1.205-0.957,2.577-0.957,4.08V22z M61.145,8.38l-2.088-7.723
					C60.667,0.222,62.363,0,64.096,0h7.731v8h-7.73C63.07,8,62.076,8.128,61.145,8.38z M93.827,8h-12V0h12V8z"/>
			</g>
		</g>
	</g>
</g>
<g>
</g>
<g>
</g>
<g>
</g>
<g>
</g>
<g>
</g>
<g>
</g>
<g>
</g>
<g>
</g>
<g>
</g>
<g>
</g>
<g>
</g>
<g>
</g>
<g>
</g>
<g>
</g>
<g>
</g>
</svg>
