<?xml version="1.0" encoding="iso-8859-1"?>
<!-- Generator: Adobe Illustrator 19.0.0, SVG Export Plug-In . SVG Version: 6.00 Build 0)  -->
<svg version="1.1" id="Capa_1" xmlns="http://www.w3.org/2000/svg" xmlns:xlink="http://www.w3.org/1999/xlink" x="0px" y="0px"
	 viewBox="0 0 470 470" style="enable-background:new 0 0 470 470;" xml:space="preserve">
<g>
	<path style="fill:#855538;" d="M430.487,62.198H39.513C25.997,62.198,15,73.195,15,86.712v296.576
		c0,13.517,10.997,24.514,24.513,24.514h390.974c13.517,0,24.513-10.997,24.513-24.514V86.712
		C455,73.195,444.003,62.198,430.487,62.198z M425,129.698c0,4.143-3.358,7.5-7.5,7.5v15c4.142,0,7.5,3.357,7.5,7.5v210.603
		c0,4.143-3.358,7.5-7.5,7.5h-365c-4.142,0-7.5-3.357-7.5-7.5V99.698c0-4.143,3.358-7.5,7.5-7.5h365c4.142,0,7.5,3.357,7.5,7.5
		V129.698z"/>
	<path style="fill:#3D2A20;" d="M430.487,47.198H39.513C17.726,47.198,0,64.924,0,86.712v296.576
		c0,21.788,17.726,39.514,39.513,39.514h390.974c21.788,0,39.513-17.726,39.513-39.514V86.712
		C470,64.924,452.274,47.198,430.487,47.198z M455,383.288c0,13.517-10.997,24.514-24.513,24.514H39.513
		C25.997,407.802,15,396.805,15,383.288V86.712c0-13.517,10.997-24.514,24.513-24.514h390.974c13.517,0,24.513,10.997,24.513,24.514
		V383.288z"/>
	<path style="fill:#FFFFFF;" d="M410,129.698v-22.5H60v255.603h350V159.698c0-4.143,3.358-7.5,7.5-7.5v-15
		C413.358,137.198,410,133.841,410,129.698z M280.15,280.15C255.744,304.557,223.706,318,189.945,318c-0.004,0-0.003,0-0.007,0
		c-9.81-0.001-19.552-1.177-28.957-3.494c-0.036-0.009-0.069-0.024-0.105-0.034c-0.291-0.076-0.579-0.165-0.861-0.276
		c-0.008-0.003-0.016-0.005-0.023-0.008c-0.289-0.115-0.57-0.254-0.846-0.406c-0.061-0.034-0.12-0.071-0.18-0.107
		c-0.208-0.123-0.411-0.257-0.609-0.402c-0.064-0.047-0.129-0.092-0.192-0.141c-0.239-0.187-0.472-0.385-0.692-0.604
		c-0.22-0.22-0.418-0.453-0.605-0.693c-0.048-0.062-0.093-0.126-0.139-0.189c-0.146-0.199-0.281-0.403-0.405-0.613
		c-0.035-0.059-0.071-0.117-0.104-0.177c-0.153-0.277-0.292-0.559-0.408-0.849c-0.002-0.005-0.003-0.01-0.005-0.015
		c-0.113-0.285-0.203-0.576-0.279-0.87c-0.009-0.035-0.024-0.068-0.033-0.103c-10.345-41.971,2.819-87.634,34.355-119.17
		C214.257,165.441,246.295,152,280.061,152c9.809,0,19.551,1.176,28.958,3.494c2.707,0.667,4.82,2.78,5.487,5.487
		C324.851,202.951,311.687,248.614,280.15,280.15z"/>
	<path style="fill:#A3E175;" d="M300.942,169.058c-6.83-1.366-13.834-2.058-20.882-2.058c-29.759,0-58.03,11.882-79.604,33.456
		c-24.434,24.433-36.385,58.397-32.805,91.286l104.64-104.64c2.929-2.928,7.678-2.928,10.606,0c2.929,2.93,2.929,7.678,0,10.607
		L178.253,302.354c3.867,0.424,7.769,0.646,11.686,0.646c0.002,0,0.005,0,0.006,0c29.756,0,58.024-11.882,79.599-33.457
		C296.265,242.822,308.07,204.702,300.942,169.058z"/>
	<path style="fill:#3D2A20;" d="M309.019,155.494c-9.407-2.318-19.149-3.494-28.958-3.494c-33.766,0-65.803,13.441-90.211,37.849
		c-31.536,31.536-44.7,77.199-34.355,119.17c0.009,0.035,0.024,0.068,0.033,0.103c0.077,0.294,0.166,0.585,0.279,0.87
		c0.002,0.005,0.003,0.01,0.005,0.015c0.116,0.29,0.255,0.573,0.408,0.849c0.033,0.06,0.07,0.118,0.104,0.177
		c0.124,0.209,0.259,0.414,0.405,0.613c0.046,0.063,0.091,0.127,0.139,0.189c0.187,0.239,0.385,0.472,0.605,0.693
		c0.22,0.22,0.453,0.417,0.692,0.604c0.063,0.049,0.128,0.094,0.192,0.141c0.198,0.145,0.401,0.279,0.609,0.402
		c0.06,0.036,0.119,0.073,0.18,0.107c0.276,0.153,0.557,0.291,0.846,0.406c0.008,0.003,0.016,0.005,0.023,0.008
		c0.282,0.112,0.57,0.2,0.861,0.276c0.036,0.009,0.069,0.025,0.105,0.034c9.404,2.317,19.146,3.493,28.957,3.494
		c0.004,0,0.003,0,0.007,0c33.761,0,65.799-13.443,90.205-37.85c31.537-31.536,44.701-77.199,34.355-119.169
		C313.838,158.274,311.725,156.161,309.019,155.494z M189.945,303c-0.001,0-0.004,0-0.006,0c-3.917,0-7.819-0.222-11.686-0.646
		l104.645-104.645c2.929-2.93,2.929-7.678,0-10.607c-2.929-2.928-7.678-2.928-10.606,0l-104.64,104.64
		c-3.58-32.889,8.371-66.852,32.805-91.286C222.031,178.882,250.301,167,280.061,167c7.048,0,14.052,0.691,20.882,2.058
		c7.127,35.645-4.677,73.765-31.398,100.485C247.969,291.118,219.701,303,189.945,303z"/>
	<path style="fill:#3D2A20;" d="M417.5,92.198h-365c-4.142,0-7.5,3.357-7.5,7.5v270.603c0,4.143,3.358,7.5,7.5,7.5h365
		c4.142,0,7.5-3.357,7.5-7.5V159.698c0-4.143-3.358-7.5-7.5-7.5s-7.5,3.357-7.5,7.5v203.103H60V107.198h350v22.5
		c0,4.143,3.358,7.5,7.5,7.5s7.5-3.357,7.5-7.5v-30C425,95.556,421.642,92.198,417.5,92.198z"/>
</g>
<g>
</g>
<g>
</g>
<g>
</g>
<g>
</g>
<g>
</g>
<g>
</g>
<g>
</g>
<g>
</g>
<g>
</g>
<g>
</g>
<g>
</g>
<g>
</g>
<g>
</g>
<g>
</g>
<g>
</g>
</svg>
