<?xml version="1.0" encoding="iso-8859-1"?>
<!-- Generator: Adobe Illustrator 19.0.0, SVG Export Plug-In . SVG Version: 6.00 Build 0)  -->
<svg version="1.1" id="Layer_1" xmlns="http://www.w3.org/2000/svg" xmlns:xlink="http://www.w3.org/1999/xlink" x="0px" y="0px"
	 viewBox="0 0 270.113 270.113" style="enable-background:new 0 0 270.113 270.113;" xml:space="preserve">
<g>
	<path style="fill:#1D1D1B;" d="M236.054,117.355c0.12,0.281,0.241,0.603,0.161,1.005c-7.675,48.022-45.932,76.473-91.663,81.939
		c0.482,9.805-0.121,19.691,2.09,29.336c0,0.121,0.08,0.241,0.08,0.362c11.975-0.161,56.421-0.844,49.067,16.476
		c-3.094,21.539-34.238,22.022-51.277,23.147c-18.204,1.165-36.649,0.281-54.652-2.813c-8.64-1.447-16.436-2.532-21.58-8.278
		c-0.281,0.121-0.603,0.121-0.965-0.04c-8.519-4.42-4.501-15.029,1.648-19.611c11.935-8.921,32.55-11.855,47.299-10.529
		c0.603-1.849,1.085-3.697,1.527-5.586c1.567-7.274,1.366-14.668,2.532-21.941c-46.254-4.059-87.163-37.614-86.439-88.127
		c0-0.723,0.764-1.005,1.326-0.844c0.04-0.08,0.04-0.201,0.121-0.281c4.42-3.898,12.016-4.621,17.802-2.813
		c2.933-29.376,27.728-54.009,59.475-52.724c8.198,0.322,15.471,2.451,21.74,5.867c10.73-11.292,32.39-16.798,46.816-11.051
		c0.12,0.04,0.241,0.12,0.321,0.201c9.564-16.838,20.495-33.193,30.421-49.589c0.201-0.322,0.442-0.482,0.683-0.563
		c0.08-0.08,0.121-0.201,0.241-0.241c6.47-2.371,13.824,1.969,15.833,8.318c0.322,0.964-0.322,1.567-1.085,1.728
		c0.522,0.482,0.723,1.206,0.281,1.969c-8.479,14.748-16.757,29.697-25.478,44.365c14.105,12.699,24.192,35.283,22.383,55.617
		c3.697,0.161,8.479,0.965,10.93,3.617C235.974,116.632,236.054,116.993,236.054,117.355z M232.919,118.239
		c-1.366-0.522-2.652-1.286-4.019-1.808c-1.447-0.482-2.893-0.844-4.42-1.165c-0.643,4.621-1.889,9.042-3.938,13.221
		c2.813-1.728,4.862-3.818,5.666-6.43c0.482-1.688,2.974-0.965,2.572,0.723c-2.974,12.779-20.856,13.101-31.747,14.788
		c-21.017,3.336-42.396,4.541-63.654,3.737c-20.696-0.764-42.275-2.893-62.328-8.318c-9.886-2.652-25.076-5.867-27.768-17.32
		c-0.241-1.165,1.487-2.009,2.009-0.844c1.688,3.576,4.541,6.631,8.238,9.162c-0.723-4.461-0.924-8.921-0.643-13.261
		c-2.371-0.08-4.742-0.12-7.113,0.241c-3.295,0.442-6.028,1.929-9.202,2.773c-0.201,0.04-0.402,0-0.603-0.08
		c4.903,26.08,13.221,49.951,35.283,66.628c19.209,14.547,43.561,18.847,67.231,16.999
		C185.299,193.628,224.159,165.819,232.919,118.239z M226.128,10.18c-0.121-0.121-0.201-0.241-0.281-0.442
		c-1.808-4.782-6.309-7.314-11.212-7.274c-0.04,0.161-0.08,0.322-0.161,0.482c0,0,0,0-0.04,0.04c0.964,2.25,2.371,4.179,4.501,5.506
		c1.125,0.723,2.371,1.246,3.697,1.487c1.045,0.161,2.049,0.04,3.054,0.322C225.807,10.22,225.967,10.22,226.128,10.18z
		 M217.287,129.451c9.363-25.317,1.045-50.835-16.115-70.405c-3.697,6.148-7.434,12.217-11.372,18.204
		c1.246-0.321,2.532-0.281,3.777,0.121c3.697,1.326,6.349,6.671,4.3,10.247c-0.764,1.326-2.451,0.603-2.612-0.723
		c-0.281-2.371,0.04-5.023-2.411-6.43c-2.049-1.165-5.023-0.161-5.787,2.09c-0.321,0.884-1.206,0.844-1.688,0.321
		c-0.442-0.201-0.764-0.563-0.804-1.125c-0.322-3.375,0.603-6.55-2.25-9.243c-2.491-2.371-6.389-2.21-8.238,0.482
		c0.322,0.322,0.603,0.683,0.804,1.125c0.522,1.125-0.563,2.451-1.768,1.768c-0.281-0.161-0.522-0.402-0.763-0.603
		c-0.522,0.04-1.005-0.322-1.125-0.884c-0.322-0.281-0.643-0.563-1.005-0.804c-1.125-0.764-2.411-1.206-3.697-1.527
		c-1.125-0.281-0.884-2.09,0.281-2.049c0.844,0.04,1.768,0.201,2.733,0.442c0-1.648-0.281-3.175-1.848-4.219
		c-1.125-0.764-2.492-0.844-3.818-0.603c-0.683,0.12-3.335,0.844-2.974,1.889c0.362,1.125-1.246,2.009-2.049,1.165
		c-1.567-1.688-0.482-3.737,1.165-4.943c2.009-1.487,4.702-2.049,7.153-1.527c2.532,0.563,4.863,2.813,5.586,5.345
		c2.25-4.621,4.702-9.202,7.234-13.784c-14.065-4.903-32.028,0.522-44.003,9.002c23.75,14.186,32.711,47.7,23.951,74.906
		c6.068-0.241,12.096-0.643,18.124-1.206c6.55-0.603,27.085-1.005,39.221-6.349C217.207,129.933,217.207,129.692,217.287,129.451z
		 M223.476,13.435c-2.411-0.08-5.104-1.366-6.711-2.612c-1.808-1.326-3.135-3.094-3.978-5.063
		c-3.295,5.546-6.55,11.172-9.805,16.798c-1.487,9.162-1.085,17.119,0.04,26.362C209.732,37.024,216.684,25.25,223.476,13.435z
		 M201.735,51.25c-0.362-0.12-0.723-0.321-0.884-0.723c-2.572-6.631-2.813-14.587-1.366-21.941
		c-8.117,13.944-16.396,27.809-25.88,40.547c-0.201,0.241-0.402,0.322-0.643,0.322c0,0.281,0,0.563-0.08,0.844
		c2.25-2.532,6.189-3.295,9.524-1.648c2.934,1.447,5.104,4.903,5.586,8.399C192.292,68.329,196.953,59.729,201.735,51.25z
		 M156.165,137.368c10.89-34.118-6.751-76.915-46.696-77.518c-35.846-0.522-56.26,33.274-53.286,65.583c0.04,0.08,0,0.161,0,0.201
		c21.258,12.216,63.775,11.895,80.934,12.297c6.309,0.121,12.658,0.08,19.008-0.08C156.125,137.689,156.125,137.528,156.165,137.368
		z M192.653,244.663c-1.768-11.212-32.671-10.971-44.606-10.85c1.808,4.099,4.38,7.796,5.465,11.895
		c0.442,1.688-1.326,2.813-2.813,2.13c-0.08-0.04-0.201-0.08-0.281-0.161c-0.603-0.241-0.884-0.965-0.884-1.607
		c-0.804-1.768-2.612-3.938-3.335-5.546c-1.045-2.29-1.848-4.661-2.532-7.033c-0.763-0.563-1.005-1.607-0.643-2.411
		c-0.241-1.085-0.482-2.17-0.683-3.255c-1.567-9.042-1.366-18.285-0.201-27.326c-2.291,0.241-4.541,0.482-6.832,0.603
		c-4.581,0.201-9.122,0.161-13.623-0.201c3.657,13.663-1.206,32.55-8.761,44.124c-0.844,1.326-3.255,0.482-2.612-1.085
		c1.688-4.34,3.496-8.6,5.023-12.94c-8.318,0.804-16.556,1.366-24.754,3.335c-6.952,1.728-29.094,7.033-23.87,18.928
		c13.221,15.351,43.802,13.02,62.288,12.98C148.69,266.163,186.264,267.77,192.653,244.663z"/>
	<path style="fill:#DADADA;" d="M228.901,116.431c1.366,0.522,2.652,1.286,4.019,1.808c-8.76,47.58-47.62,75.388-94.436,79.045
		c-23.669,1.849-48.022-2.451-67.231-16.999c-22.062-16.677-30.38-40.547-35.283-66.628c0.201,0.08,0.402,0.12,0.603,0.08
		c3.175-0.844,5.907-2.331,9.202-2.773c2.371-0.362,4.742-0.322,7.113-0.241c-0.281,4.34-0.08,8.801,0.643,13.261
		c-3.697-2.532-6.55-5.586-8.238-9.162c-0.522-1.165-2.25-0.321-2.009,0.844c2.692,11.453,17.883,14.668,27.768,17.32
		c20.053,5.425,41.632,7.555,62.328,8.318c21.258,0.804,42.637-0.402,63.654-3.737c10.89-1.688,28.773-2.009,31.747-14.788
		c0.402-1.688-2.09-2.411-2.572-0.723c-0.804,2.612-2.853,4.702-5.666,6.43c2.049-4.179,3.295-8.6,3.938-13.221
		C226.007,115.587,227.454,115.949,228.901,116.431z M202.499,163.77c0.161-0.723-0.924-1.326-1.286-0.522
		c-1.487,3.094-3.536,5.465-6.912,6.51c-0.884,0.281-0.522,1.527,0.362,1.326C198.36,170.32,201.695,167.587,202.499,163.77z
		 M198.078,158.586c0.08-0.764-1.206-0.965-1.406-0.161c-0.402,2.049-1.407,3.858-3.094,5.144c-0.723,0.563-0.04,1.848,0.764,1.286
		C196.551,163.287,197.797,161.278,198.078,158.586z M160.063,162.122c0.563-0.442,0.04-1.366-0.603-1.005
		c-2.17,1.326-4.501,2.572-6.872,3.536c-0.603,0.241-0.362,1.165,0.281,0.964C155.441,164.774,157.812,163.649,160.063,162.122z
		 M95.726,150.508c1.085,0.161,1.607-1.487,0.482-1.728c-3.858-0.764-7.675-1.447-11.573-2.049
		c-1.165-0.161-1.728,1.607-0.482,1.848C88.01,149.303,91.828,149.946,95.726,150.508z M91.466,145.043
		c0.603-0.04,0.603-0.924,0-0.965c-3.215-0.161-6.189-1.125-8.801-3.014c-0.482-0.362-1.085,0.442-0.643,0.844
		C84.755,144.079,87.93,145.244,91.466,145.043z M78.044,178.196c0.442,0.321,0.965-0.362,0.603-0.723
		c-1.808-1.607-3.617-3.134-5.465-4.581c-0.563-0.482-1.407,0.321-0.804,0.804C74.226,175.263,76.115,176.75,78.044,178.196z
		 M56.022,144.48c0.482,0.322,1.085-0.442,0.643-0.844c-1.849-1.648-3.416-3.617-4.581-5.827c-0.201-0.402-0.884-0.121-0.764,0.321
		C52.285,140.824,53.732,142.793,56.022,144.48z"/>
	<path style="fill:#CA9E67;" d="M225.847,9.738c0.08,0.201,0.161,0.321,0.281,0.442c-0.161,0.04-0.322,0.04-0.442,0.121
		c-1.005-0.281-2.009-0.161-3.054-0.322c-1.326-0.241-2.572-0.763-3.697-1.487c-2.13-1.326-3.536-3.255-4.501-5.506
		c0.04-0.04,0.04-0.04,0.04-0.04c0.08-0.161,0.12-0.321,0.161-0.482C219.538,2.424,224.038,4.956,225.847,9.738z"/>
	<path style="fill:#F8F8CC;" d="M201.173,59.046c17.159,19.57,25.478,45.088,16.115,70.405c-0.08,0.241-0.08,0.482,0,0.683
		c-12.136,5.345-32.671,5.747-39.221,6.349c-6.028,0.563-12.056,0.964-18.124,1.206c8.76-27.206-0.201-60.72-23.951-74.906
		c11.975-8.479,29.938-13.904,44.003-9.002c-2.532,4.581-4.983,9.162-7.234,13.784c-0.723-2.532-3.054-4.782-5.586-5.345
		c-2.451-0.522-5.144,0.04-7.153,1.527c-1.648,1.205-2.733,3.255-1.165,4.943c0.804,0.844,2.411-0.04,2.049-1.165
		c-0.362-1.045,2.291-1.768,2.974-1.889c1.326-0.241,2.693-0.161,3.818,0.603c1.567,1.045,1.848,2.572,1.848,4.219
		c-0.965-0.241-1.889-0.402-2.733-0.442c-1.165-0.04-1.406,1.768-0.281,2.049c1.286,0.322,2.572,0.764,3.697,1.527
		c0.362,0.241,0.683,0.522,1.005,0.804c0.12,0.563,0.603,0.924,1.125,0.884c0.241,0.201,0.482,0.442,0.763,0.603
		c1.206,0.683,2.291-0.643,1.768-1.768c-0.201-0.442-0.482-0.804-0.804-1.125c1.848-2.692,5.747-2.853,8.238-0.482
		c2.853,2.692,1.929,5.867,2.25,9.243c0.04,0.563,0.362,0.924,0.804,1.125c0.482,0.523,1.366,0.563,1.688-0.321
		c0.764-2.25,3.737-3.255,5.787-2.09c2.451,1.406,2.13,4.059,2.411,6.43c0.161,1.326,1.849,2.049,2.612,0.723
		c2.049-3.577-0.603-8.921-4.3-10.247c-1.246-0.402-2.532-0.442-3.777-0.121C193.738,71.262,197.476,65.194,201.173,59.046z
		 M213.269,94.289c0.121-4.702-1.768-8.961-4.863-12.417c-0.362-0.402-1.085,0.121-0.764,0.563
		c2.612,3.496,3.778,7.555,4.019,11.855C211.742,95.333,213.228,95.333,213.269,94.289z M211.701,82.956
		c0.281,1.045,1.768,0.603,1.567-0.402c-0.603-3.496-2.612-6.349-5.425-8.479c-0.683-0.482-1.567,0.643-0.924,1.206
		C209.411,77.29,210.898,79.902,211.701,82.956z M203.544,120.771c0.683-1.447,0.844-2.773,0.723-4.38
		c-0.08-1.005-1.648-1.045-1.607,0c0,1.286-0.161,2.612-0.362,3.858C202.177,120.932,203.222,121.534,203.544,120.771z
		 M182.326,100.477c0.924-3.938-0.924-7.716-4.541-9.524c-0.643-0.321-1.246,0.643-0.563,1.045c2.773,1.607,4.34,4.943,3.898,8.158
		C181,100.919,182.125,101.281,182.326,100.477z M171.636,116.913c0.04-1.085-1.567-1.045-1.648,0
		c-0.281,3.014-0.603,6.028-0.603,9.042c-0.04,1.246,1.728,1.165,1.849,0C171.556,122.941,171.556,119.927,171.636,116.913z
		 M166.653,121.173c1.487-3.858,1.527-8.037,0.522-12.016c-0.281-1.045-1.768-0.603-1.607,0.402
		c0.603,3.818,0.241,7.434-0.643,11.132C164.684,121.816,166.251,122.218,166.653,121.173z"/>
	<path style="fill:#CA9E67;" d="M216.765,10.823c1.607,1.246,4.3,2.532,6.711,2.612c-6.791,11.815-13.743,23.589-20.454,35.484
		c-1.125-9.243-1.527-17.199-0.04-26.362c3.255-5.626,6.51-11.252,9.805-16.798C213.63,7.729,214.956,9.497,216.765,10.823z"/>
	<path style="fill:#1D1D1B;" d="M208.406,81.871c3.094,3.456,4.983,7.716,4.863,12.417c-0.04,1.045-1.527,1.045-1.607,0
		c-0.241-4.3-1.406-8.359-4.019-11.855C207.321,81.992,208.045,81.469,208.406,81.871z"/>
	<path style="fill:#1D1D1B;" d="M213.269,82.554c0.201,1.005-1.286,1.447-1.567,0.402c-0.804-3.054-2.291-5.666-4.782-7.675
		c-0.643-0.563,0.241-1.688,0.924-1.206C210.657,76.205,212.666,79.058,213.269,82.554z"/>
	<path style="fill:#1D1D1B;" d="M204.267,116.391c0.121,1.607-0.04,2.934-0.723,4.38c-0.322,0.764-1.366,0.161-1.246-0.522
		c0.201-1.246,0.362-2.572,0.362-3.858C202.619,115.346,204.187,115.386,204.267,116.391z"/>
	<path style="fill:#1D1D1B;" d="M201.213,163.247c0.362-0.804,1.447-0.201,1.286,0.522c-0.804,3.818-4.139,6.55-7.836,7.314
		c-0.884,0.201-1.246-1.045-0.362-1.326C197.677,168.712,199.726,166.341,201.213,163.247z"/>
	<path style="fill:#CA9E67;" d="M200.851,50.526c0.161,0.402,0.522,0.603,0.884,0.723c-4.782,8.479-9.444,17.079-13.743,25.799
		c-0.482-3.496-2.652-6.952-5.586-8.399c-3.335-1.648-7.274-0.884-9.524,1.648c0.08-0.281,0.08-0.563,0.08-0.844
		c0.241,0,0.442-0.08,0.643-0.322c9.484-12.739,17.762-26.603,25.88-40.547C198.038,35.939,198.279,43.896,200.851,50.526z"/>
	<path style="fill:#1D1D1B;" d="M196.672,158.425c0.201-0.804,1.487-0.603,1.406,0.161c-0.281,2.692-1.527,4.702-3.737,6.269
		c-0.804,0.563-1.487-0.723-0.764-1.286C195.265,162.283,196.27,160.474,196.672,158.425z"/>
	<path style="fill:#1D1D1B;" d="M183.049,242.091c0.442,0.723-0.643,1.567-1.165,0.924c-1.366-1.567-2.934-2.652-5.023-2.853
		c-0.804-0.08-0.844-1.246,0-1.246C179.392,238.877,181.683,239.921,183.049,242.091z"/>
	<path style="fill:#1D1D1B;" d="M177.785,90.953c3.617,1.808,5.465,5.586,4.541,9.524c-0.201,0.804-1.326,0.442-1.205-0.322
		c0.442-3.215-1.125-6.55-3.898-8.158C176.539,91.596,177.142,90.632,177.785,90.953z"/>
	<path style="fill:#1D1D1B;" d="M182.165,250.008c0,0.884-1.286,1.045-1.527,0.201c-0.683-2.652-1.447-5.063-3.295-7.193
		c-0.603-0.723,0.362-1.728,1.005-1.045C180.517,244.141,182.125,246.914,182.165,250.008z"/>
	<path style="fill:#1D1D1B;" d="M169.989,116.913c0.08-1.045,1.688-1.085,1.648,0c-0.08,3.014-0.08,6.028-0.402,9.042
		c-0.121,1.165-1.889,1.246-1.849,0C169.386,122.941,169.707,119.927,169.989,116.913z"/>
	<path style="fill:#1D1D1B;" d="M167.176,109.157c1.005,3.978,0.965,8.158-0.522,12.016c-0.402,1.045-1.969,0.643-1.728-0.482
		c0.884-3.697,1.246-7.314,0.643-11.132C165.408,108.554,166.894,108.112,167.176,109.157z"/>
	<path style="fill:#1D1D1B;" d="M159.46,161.117c0.643-0.362,1.165,0.563,0.603,1.005c-2.25,1.527-4.621,2.652-7.193,3.496
		c-0.643,0.201-0.884-0.723-0.281-0.964C154.959,163.689,157.29,162.443,159.46,161.117z"/>
	<path style="fill:#7D4E24;" d="M109.469,59.849c39.945,0.603,57.586,43.401,46.696,77.518c-0.04,0.161-0.04,0.322-0.04,0.482
		c-6.349,0.161-12.699,0.201-19.008,0.08c-17.159-0.402-59.676-0.08-80.934-12.297c0-0.04,0.04-0.121,0-0.201
		C53.209,93.123,73.623,59.327,109.469,59.849z M140.492,84.162c0.402,0.844,1.808,0.241,1.487-0.643
		c-0.884-2.612-2.612-4.501-4.943-5.907c-0.884-0.522-1.567,0.764-0.804,1.326C138.162,80.264,139.488,82.072,140.492,84.162z
		 M139.93,77.652c0.482,0.924,1.808,0.121,1.366-0.804c-1.125-2.532-2.934-4.541-5.465-5.666c-1.246-0.563-3.818-1.728-4.501,0.08
		c-0.12,0.241,0.04,0.563,0.281,0.683c0.04,0.04,0.08,0.04,0.161,0.08c0.362,0.201,0.723-0.08,0.804-0.362
		c0.844-0.241,4.018,1.969,4.38,2.331C138.162,75.04,139.166,76.245,139.93,77.652z M112.362,119.646
		c0.402-0.884-1.165-1.567-1.607-0.683c-0.522,1.246-0.804,2.371-0.522,3.697c0.161,0.964,1.688,0.723,1.688-0.241
		C111.88,121.414,112.001,120.57,112.362,119.646z M102.637,89.426c0.764-0.804-0.402-1.969-1.246-1.246
		c-2.09,1.929-3.295,4.3-3.335,7.113c-0.04,1.206,1.648,1.125,1.768,0C100.146,93.083,101.03,91.033,102.637,89.426z M69.444,94.168
		c0.402-0.844-0.723-1.527-1.206-0.723c-2.17,3.536-3.255,7.314-3.697,11.413c-0.08,0.884,1.407,1.085,1.527,0.201
		C66.671,101.281,67.917,97.664,69.444,94.168z M63.376,100.156c0.321-0.723-0.643-1.366-1.085-0.643
		c-1.808,2.893-2.451,5.988-2.21,9.363c0.08,0.884,1.407,0.924,1.407,0C61.487,105.902,62.211,102.928,63.376,100.156z"/>
	<path style="fill:#DADADA;" d="M148.047,233.813c11.935-0.12,42.838-0.362,44.606,10.85c-6.39,23.107-43.963,21.499-63.654,21.58
		c-18.485,0.04-49.067,2.371-62.288-12.98c-5.224-11.895,16.918-17.2,23.87-18.928c8.198-1.969,16.436-2.532,24.754-3.335
		c-1.527,4.34-3.335,8.6-5.023,12.94c-0.643,1.567,1.768,2.411,2.612,1.085c7.555-11.573,12.417-30.461,8.761-44.124
		c4.501,0.362,9.042,0.402,13.623,0.201c2.291-0.121,4.541-0.362,6.832-0.603c-1.165,9.042-1.366,18.285,0.201,27.326
		c0.201,1.085,0.442,2.17,0.683,3.255c-0.362,0.804-0.12,1.849,0.643,2.411c0.683,2.371,1.487,4.742,2.532,7.033
		c0.723,1.607,2.532,3.777,3.335,5.546c0,0.643,0.281,1.366,0.884,1.607c0.08,0.08,0.201,0.12,0.281,0.161
		c1.487,0.683,3.255-0.442,2.813-2.13C152.428,241.609,149.856,237.912,148.047,233.813z M181.884,243.016
		c0.522,0.643,1.607-0.201,1.165-0.924c-1.366-2.17-3.657-3.215-6.189-3.175c-0.844,0-0.804,1.165,0,1.246
		C178.95,240.363,180.517,241.448,181.884,243.016z M180.638,250.209c0.241,0.844,1.527,0.683,1.527-0.201
		c-0.04-3.094-1.648-5.867-3.818-8.037c-0.643-0.683-1.608,0.322-1.005,1.045C179.191,245.146,179.955,247.557,180.638,250.209z
		 M125.784,235.38c1.889-3.014,2.933-6.43,2.692-9.966c-0.04-1.165-1.728-1.165-1.808,0c-0.241,3.215-0.804,6.229-2.17,9.202
		C124.137,235.461,125.302,236.184,125.784,235.38z M123.815,228.629c0.241-0.804-0.965-1.125-1.246-0.322
		c-0.844,2.291-1.567,4.581-2.17,6.952c-0.201,0.804,0.924,1.085,1.165,0.322C122.449,233.291,123.172,231,123.815,228.629z
		 M85.478,255.795c0.964,0.482,1.768-1.005,0.844-1.406c-2.21-0.965-4.099-2.291-5.867-3.858c0.04-0.121,0-0.281-0.161-0.402
		c-0.161-0.161-0.362-0.322-0.563-0.442c-0.12-0.161-0.281-0.161-0.442-0.121c-0.563-0.482-1.326,0.321-0.804,0.884
		C80.495,252.7,82.786,254.469,85.478,255.795z M82.705,259.371c0.884,0.161,1.165-1.005,0.362-1.366
		c-2.572-1.005-5.023-2.049-7.274-3.697c-0.683-0.482-1.607,0.683-0.924,1.246C77.2,257.362,79.772,258.849,82.705,259.371z"/>
	<path style="fill:#1D1D1B;" d="M141.979,83.519c0.322,0.884-1.085,1.487-1.487,0.643c-1.005-2.09-2.331-3.898-4.26-5.224
		c-0.764-0.563-0.08-1.849,0.804-1.326C139.367,79.018,141.095,80.907,141.979,83.519z"/>
	<path style="fill:#1D1D1B;" d="M141.296,76.848c0.442,0.924-0.884,1.728-1.366,0.804c-0.764-1.407-1.768-2.612-2.974-3.657
		c-0.362-0.362-3.536-2.572-4.38-2.331c-0.08,0.281-0.442,0.563-0.804,0.362c-0.08-0.04-0.121-0.04-0.161-0.08
		c-0.241-0.12-0.402-0.442-0.281-0.683c0.683-1.808,3.255-0.643,4.501-0.08C138.363,72.307,140.171,74.316,141.296,76.848z"/>
	<path style="fill:#1D1D1B;" d="M128.477,225.414c0.241,3.536-0.804,6.952-2.692,9.966c-0.482,0.804-1.648,0.08-1.286-0.764
		c1.366-2.974,1.929-5.988,2.17-9.202C126.749,224.249,128.437,224.249,128.477,225.414z"/>
	<path style="fill:#1D1D1B;" d="M122.57,228.308c0.281-0.804,1.487-0.482,1.246,0.322c-0.643,2.371-1.366,4.661-2.25,6.952
		c-0.241,0.764-1.366,0.482-1.165-0.322C121.002,232.889,121.726,230.598,122.57,228.308z"/>
	<path style="fill:#1D1D1B;" d="M110.755,118.963c0.442-0.884,2.009-0.201,1.607,0.683c-0.362,0.924-0.482,1.768-0.442,2.773
		c0,0.965-1.527,1.206-1.688,0.241C109.951,121.333,110.233,120.208,110.755,118.963z"/>
	<path style="fill:#1D1D1B;" d="M101.392,88.18c0.844-0.723,2.009,0.442,1.246,1.246c-1.607,1.607-2.492,3.657-2.813,5.867
		c-0.121,1.125-1.808,1.206-1.768,0C98.097,92.48,99.302,90.109,101.392,88.18z"/>
	<path style="fill:#1D1D1B;" d="M96.208,148.78c1.125,0.241,0.603,1.889-0.482,1.728c-3.898-0.563-7.716-1.205-11.574-1.929
		c-1.246-0.241-0.683-2.009,0.482-1.848C88.532,147.334,92.35,148.017,96.208,148.78z"/>
	<path style="fill:#1D1D1B;" d="M91.466,144.079c0.603,0.04,0.603,0.924,0,0.965c-3.536,0.201-6.711-0.965-9.444-3.135
		c-0.442-0.402,0.161-1.206,0.643-0.844C85.277,142.953,88.251,143.918,91.466,144.079z"/>
	<path style="fill:#1D1D1B;" d="M86.322,254.388c0.924,0.402,0.12,1.889-0.844,1.406c-2.693-1.326-4.983-3.094-6.992-5.345
		c-0.522-0.563,0.241-1.366,0.804-0.884c0.161-0.04,0.322-0.04,0.442,0.121c0.201,0.12,0.402,0.281,0.563,0.442
		c0.161,0.121,0.201,0.281,0.161,0.402C82.223,252.098,84.112,253.424,86.322,254.388z"/>
	<path style="fill:#1D1D1B;" d="M83.067,258.005c0.804,0.362,0.522,1.527-0.362,1.366c-2.934-0.522-5.506-2.009-7.836-3.818
		c-0.683-0.563,0.241-1.728,0.924-1.246C78.044,255.955,80.495,257,83.067,258.005z"/>
	<path style="fill:#1D1D1B;" d="M78.647,177.473c0.362,0.362-0.161,1.045-0.603,0.723c-1.929-1.447-3.818-2.934-5.666-4.501
		c-0.603-0.482,0.241-1.286,0.804-0.804C75.03,174.338,76.838,175.865,78.647,177.473z"/>
	<path style="fill:#1D1D1B;" d="M68.239,93.445c0.482-0.804,1.607-0.121,1.206,0.723c-1.527,3.496-2.773,7.113-3.376,10.89
		c-0.121,0.884-1.607,0.683-1.527-0.201C64.984,100.758,66.069,96.981,68.239,93.445z"/>
	<path style="fill:#1D1D1B;" d="M62.291,99.513c0.442-0.723,1.406-0.08,1.085,0.643c-1.165,2.773-1.889,5.747-1.889,8.72
		c0,0.924-1.326,0.884-1.407,0C59.84,105.5,60.483,102.406,62.291,99.513z"/>
	<path style="fill:#1D1D1B;" d="M56.665,143.637c0.442,0.402-0.161,1.165-0.643,0.844c-2.291-1.688-3.737-3.657-4.702-6.349
		c-0.12-0.442,0.563-0.723,0.764-0.321C53.249,140.02,54.817,141.989,56.665,143.637z"/>
</g>
<g>
</g>
<g>
</g>
<g>
</g>
<g>
</g>
<g>
</g>
<g>
</g>
<g>
</g>
<g>
</g>
<g>
</g>
<g>
</g>
<g>
</g>
<g>
</g>
<g>
</g>
<g>
</g>
<g>
</g>
</svg>
