<?xml version="1.0" encoding="iso-8859-1"?>
<!-- Generator: Adobe Illustrator 19.0.0, SVG Export Plug-In . SVG Version: 6.00 Build 0)  -->
<svg xmlns="http://www.w3.org/2000/svg" xmlns:xlink="http://www.w3.org/1999/xlink" version="1.1" id="Capa_1" x="0px" y="0px" viewBox="0 0 470.001 470.001" style="enable-background:new 0 0 470.001 470.001;" xml:space="preserve" width="512" height="512">
<g>
	<path style="fill:#99D9FF;" d="M332.5,147.501l-81.25,255h30c33,0,62.242-26.907,64.983-59.793L362.5,147.501H332.5z"/>
	<path style="fill:#CCECFF;" d="M316.233,342.708L332.5,147.501h-225l2.5,30h-7.5c-41.421,0-75,33.579-75,75   c0,41.421,33.579,75,75,75h20l1.267,15.207c2.74,32.886,31.983,59.793,64.983,59.793h62.5   C284.25,402.501,313.493,375.594,316.233,342.708z M102.5,297.501c-24.853,0-45-20.147-45-45c0-24.853,20.147-45,45-45h10l7.5,90   H102.5z"/>
	<path style="fill:#FDA162;" d="M299.258,185.158L251.25,372.501h30c17.258,0,33.653-15.086,35.086-32.284l13.56-162.716   C313.628,177.501,308.513,182.202,299.258,185.158z"/>
	<path style="fill:#FDCE6E;" d="M286.336,340.217l12.922-155.059c-4.243,1.355-9.355,2.344-16.813,2.344   c-23.725,0-23.725-10-47.451-10c-23.722,0-23.722,10-47.444,10c-23.723,0-23.723-10-47.446-10l13.56,162.716   c1.433,17.198,17.828,32.284,35.086,32.284h62.5C268.508,372.501,284.904,357.415,286.336,340.217z"/>
	<path style="fill:#FDCE6E;" d="M402.5,432.501l-40,30h30c16.5,0,34.269-12.807,39.487-28.46l0.513-1.54H402.5z"/>
	<path style="fill:#FDFA7B;" d="M401.987,434.04l0.513-1.54h-365l0.513,1.54c5.218,15.653,22.987,28.46,39.487,28.46h285   C379,462.501,396.77,449.694,401.987,434.04z"/>
	<polygon style="fill:#FFFFFF;" points="205,287.501 265,287.501 265,227.501 235,217.501 205,227.501  "/>
	<path d="M442.5,425.001h-415c-4.142,0-7.5,3.357-7.5,7.5s3.358,7.5,7.5,7.5h4.787c7.528,17.086,26.639,30,45.213,30h315   c18.573,0,37.684-12.913,45.212-30h4.788c4.142,0,7.5-3.357,7.5-7.5S446.643,425.001,442.5,425.001z M392.5,455.001h-315   c-10.255,0-21.389-6.325-27.902-15h370.804C413.889,448.676,402.756,455.001,392.5,455.001z"/>
	<path d="M102.5,335.001H115.6l0.694,8.33c3.063,36.762,35.567,66.67,72.457,66.67h92.5c36.889,0,69.393-29.908,72.457-66.67   l16.267-195.207c0.174-2.091-0.535-4.158-1.955-5.701c-1.42-1.544-3.422-2.422-5.519-2.422h-120v-2.5c0-4.143-3.358-7.5-7.5-7.5   s-7.5,3.357-7.5,7.5v2.5h-120c-2.097,0-4.099,0.878-5.519,2.422c-1.42,1.543-2.129,3.61-1.955,5.701l1.823,21.88   C56.657,170.354,20,207.227,20,252.501C20,297.991,57.01,335.001,102.5,335.001z M102.5,185.001h7.5   c2.097,0,4.099-0.878,5.519-2.422c1.42-1.543,2.129-3.61,1.955-5.701l-1.823-21.877H227.5v15.354   c-8.736,0.859-14.206,3.155-19.141,5.235c-5.615,2.367-10.464,4.411-20.809,4.411c-10.346,0-15.195-2.044-20.81-4.411   c-6.214-2.62-13.258-5.589-26.636-5.589c-2.097,0-4.099,0.878-5.519,2.422c-1.42,1.543-2.129,3.61-1.955,5.701l13.56,162.716   c1.768,21.228,21.258,39.161,42.56,39.161h92.5c21.302,0,40.792-17.934,42.56-39.161c0.344-4.128-2.724-7.753-6.852-8.097   c-4.129-0.357-7.753,2.724-8.097,6.851c-1.107,13.298-14.269,25.407-27.612,25.407h-92.5c-13.343,0-26.504-12.109-27.612-25.407   L148.3,185.535c5.218,0.759,8.733,2.241,12.614,3.877c6.214,2.619,13.258,5.589,26.636,5.589c13.377,0,20.421-2.97,26.636-5.589   c4.05-1.707,7.712-3.242,13.314-3.967v26.651l-24.872,8.291c-3.063,1.021-5.128,3.887-5.128,7.115v60c0,4.143,3.358,7.5,7.5,7.5h60   c4.142,0,7.5-3.357,7.5-7.5v-60c0-3.229-2.066-6.095-5.128-7.115l-24.872-8.291v-26.649c5.598,0.726,9.259,2.26,13.307,3.966   c6.215,2.62,13.26,5.589,26.638,5.589c13.379,0,20.423-2.969,26.639-5.589c3.882-1.637,7.397-3.118,12.617-3.877l-10.347,124.163   c-0.344,4.128,2.724,7.753,6.851,8.097c4.123,0.369,7.753-2.723,8.097-6.851l11.068-132.82c0.174-2.091-0.535-4.158-1.955-5.701   c-1.42-1.544-3.422-2.422-5.519-2.422c-13.378,0-20.423,2.969-26.638,5.589c-5.616,2.367-10.466,4.411-20.813,4.411   s-15.196-2.044-20.812-4.411c-4.933-2.08-10.402-4.374-19.133-5.234v-15.355H354.35l-15.59,187.084   c-2.432,29.178-28.23,52.916-57.509,52.916h-92.5c-29.279,0-55.077-23.738-57.508-52.916l-1.268-15.207   c-0.324-3.887-3.574-6.877-7.474-6.877h-20c-37.22,0-67.5-30.28-67.5-67.5S65.281,185.001,102.5,185.001z M235,225.406l22.5,7.5   v47.095h-45v-47.095L235,225.406z"/>
	<path d="M102.5,305.001h17.52c4.142,0,7.5-3.357,7.5-7.5c0-0.401-0.032-0.796-0.092-1.181l-7.454-89.442   c-0.324-3.887-3.573-6.877-7.474-6.877h-10c-28.949,0-52.5,23.552-52.5,52.5S73.552,305.001,102.5,305.001z M102.5,215.001h3.099   l6.25,75H102.5c-20.678,0-37.5-16.822-37.5-37.5S81.823,215.001,102.5,215.001z"/>
	<path style="fill:#FFCFB2;" d="M210,90.001c0-11.837,3.051-17.432,6.584-23.909C220.529,58.86,225,50.664,225,35.001   c0-15.631-4.454-23.825-8.394-31.046C215.341,1.601,212.857,0,209.997,0c-4.142,0-7.5,3.358-7.5,7.5   c0,1.307,0.336,2.535,0.924,3.605C206.951,17.578,210,23.171,210,35.001c0,11.837-3.051,17.432-6.584,23.909   C199.471,66.142,195,74.338,195,90.001c0,15.662,4.471,23.858,8.415,31.09c1.361,2.496,3.935,3.91,6.591,3.91   c1.213,0,2.444-0.295,3.584-0.917c3.637-1.983,4.977-6.539,2.993-10.175C213.051,107.431,210,101.838,210,90.001z"/>
	<path style="fill:#FFCFB2;" d="M260,90.001c0-11.837,3.051-17.432,6.584-23.909C270.529,58.86,275,50.664,275,35.001   c0-15.631-4.454-23.825-8.394-31.046C265.341,1.601,262.857,0,259.997,0c-4.142,0-7.5,3.358-7.5,7.5   c0,1.307,0.336,2.535,0.924,3.605C256.951,17.578,260,23.171,260,35.001c0,11.837-3.051,17.432-6.584,23.909   C249.471,66.142,245,74.338,245,90.001c0,15.662,4.471,23.858,8.415,31.09c1.361,2.496,3.935,3.91,6.591,3.91   c1.213,0,2.444-0.295,3.584-0.917c3.637-1.983,4.977-6.539,2.993-10.175C263.051,107.431,260,101.838,260,90.001z"/>
</g>















</svg>
