<?xml version="1.0" encoding="iso-8859-1"?>
<!-- Generator: Adobe Illustrator 19.0.0, SVG Export Plug-In . SVG Version: 6.00 Build 0)  -->
<svg version="1.1" id="Layer_1" xmlns="http://www.w3.org/2000/svg" xmlns:xlink="http://www.w3.org/1999/xlink" x="0px" y="0px"
	 viewBox="0 0 164 164" style="enable-background:new 0 0 164 164;" xml:space="preserve">
<g>
	<g>
		<g>
			<path style="fill:#56B300;" d="M115.549,96.111c0,0-2.361-17.608,18.944-18.405C134.492,77.706,133.449,97.53,115.549,96.111z"/>
		</g>
		<g>
			<path style="fill:#573A28;" d="M118.5,105.503c0,1.931-1.566,3.497-3.497,3.497h-1.006c-1.931,0-3.497-1.566-3.497-3.497V84.497
				c0-1.931,1.566-3.497,3.497-3.497h1.006c1.931,0,3.497,1.566,3.497,3.497V105.503z"/>
		</g>
		<g>
			<path style="fill:#FFD01F;" d="M127.5,121.702v-13.571c0-7.252-5.879-13.131-13.132-13.131h-0.736
				c-7.253,0-13.132,5.879-13.132,13.131v12.845c-6.036,4.122-10,11.056-10,18.916v0.217c0,12.643,10.25,22.892,22.893,22.892h0.215
				c12.643,0,22.893-10.249,22.893-22.892v-0.217C136.5,132.475,132.969,125.885,127.5,121.702z"/>
		</g>
	</g>
	<g>
		<g>
			<rect x="27.5" y="36" style="fill:#C8C8C8;" width="67" height="128"/>
		</g>
		<g>
			<rect x="27.5" y="36" style="fill:#DEDEDE;" width="33" height="128"/>
		</g>
		<g>
			<rect x="34.5" y="36" style="fill:#E9E9E9;" width="53" height="111"/>
		</g>
		<g>
			<rect x="34.5" y="66" style="fill:#FFD01F;" width="53" height="81"/>
		</g>
		<g>
			<path style="fill:#FFFFFF;" d="M80.5,117.744c0,1.798-1.458,3.256-3.257,3.256h-0.486c-1.799,0-3.257-1.458-3.257-3.256V77.256
				c0-1.798,1.458-3.256,3.257-3.256h0.486c1.799,0,3.257,1.458,3.257,3.256V117.744z"/>
		</g>
		<g>
			<circle style="fill:#FFFFFF;" cx="76.262" cy="129.124" r="3.658"/>
		</g>
		<g>
			<g>
				<path style="fill:#FFFFFF;" d="M63.5,66h-8V16.57C55.5,7.278,63.334,0,73.335,0H104.5v8H73.335c-4.768,0-9.835,3.004-9.835,8.57
					V66z"/>
			</g>
			<g>
				<path style="fill:#DF1700;" d="M63.5,66h-8V54h8V66z M63.5,44h-8V32h8V44z M63.5,22h-8v-5.43c0-2.83,0.685-5.48,2.035-7.876
					l6.97,3.926c-0.666,1.184-1.004,2.513-1.004,3.95L63.5,22L63.5,22z M70.068,8.452l-2.211-7.689C69.618,0.257,71.461,0,73.335,0
					H80.5v8h-7.165C72.209,8,71.11,8.152,70.068,8.452z M102.5,8h-12V0h12V8z"/>
			</g>
		</g>
	</g>
</g>
<g>
</g>
<g>
</g>
<g>
</g>
<g>
</g>
<g>
</g>
<g>
</g>
<g>
</g>
<g>
</g>
<g>
</g>
<g>
</g>
<g>
</g>
<g>
</g>
<g>
</g>
<g>
</g>
<g>
</g>
</svg>
