<?xml version="1.0" encoding="iso-8859-1"?>
<!-- Generator: Adobe Illustrator 19.0.0, SVG Export Plug-In . SVG Version: 6.00 Build 0)  -->
<svg version="1.1" id="Layer_1" xmlns="http://www.w3.org/2000/svg" xmlns:xlink="http://www.w3.org/1999/xlink" x="0px" y="0px"
	 viewBox="0 0 496 496" style="enable-background:new 0 0 496 496;" xml:space="preserve">
<g transform="translate(0 -1020.36)" shape-rendering="auto" image-rendering="auto" color-rendering="auto" color-interpolation="sRGB">
	<path style="fill:#2C6083;" d="M247.543,1060.375c-1.288,0.058-2.543,0.425-3.658,1.072l-118.341,71.062
		c-2.385,0.811-4.249,2.697-5.031,5.092c-0.021,0.059-0.041,0.117-0.061,0.176c-0.043,0.121-0.084,0.244-0.122,0.367
		c-0.312,1.076-0.394,2.205-0.242,3.314v42.283L5.53,1252.523c-2.385,0.811-4.249,2.697-5.031,5.092
		c-0.021,0.059-0.041,0.117-0.061,0.176c-0.043,0.121-0.084,0.244-0.122,0.367c-0.312,1.076-0.394,2.205-0.242,3.314v126.938
		c0.004,2.656,1.328,5.139,3.531,6.623l119.997,79.938c2.56,1.717,5.878,1.811,8.531,0.24l115.872-69.469l115.841,69.469
		c2.546,1.539,5.735,1.539,8.281,0l119.997-71.936c2.402-1.445,3.873-4.043,3.876-6.846v-136.188c-0.006-0.16-0.017-0.32-0.032-0.48
		c-0.185-3.182-2.232-5.951-5.219-7.063l-114.747-68.906v-43.563c-0.008-3.309-2.044-6.273-5.128-7.469l-118.746-71.312
		c-1.398-0.817-3.011-1.191-4.626-1.072L247.543,1060.375z"/>
	<path style="fill:#FAE3C7;" d="M248.043,1077.622l104.404,62.719l-104.404,62.719l-104.403-62.719L248.043,1077.622z"/>
	<path style="fill:#E2C5BA;" d="M136.046,1154.499l103.935,62.406v116.436l-103.935-69.342V1154.499z"/>
	<path style="fill:#FFFFFF;" d="M359.978,1154.499v117.309l-103.935,62.406v-117.285L359.978,1154.499z"/>
	<g>
		<path style="fill:#FAE3C7;" d="M120.109,1202.406v65.969c0.014,2.646,1.336,5.115,3.531,6.594l43.405,28.938l-38.655,19.281
			l-104.778-62.844L120.109,1202.406z"/>
		<path style="fill:#FAE3C7;" d="M376.04,1202.468l96.372,57.875l-104.403,62.717l-31.061-18.686l35.218-21.125
			c2.44-1.467,3.916-4.121,3.876-6.969L376.04,1202.468z"/>
	</g>
	<path style="fill:#E2C5BA;" d="M16.05,1274.499l103.935,62.375v116.469L16.05,1384.126L16.05,1274.499z"/>
	<path style="fill:#FFFFFF;" d="M479.974,1274.499v117.281l-103.935,62.406v-117.281L479.974,1274.499z"/>
	<path style="fill:#E2C5BA;" d="M321.822,1313.437l38.153,23.471v117.281l-103.935-62.406v-38.906L321.822,1313.437z"/>
	<path style="fill:#FFFFFF;" d="M181.889,1313.781l58.092,38.721v39.313l-103.935,62.406v-116.939c0,0,31.277-15.479,45.842-23.498
		L181.889,1313.781z"/>
</g>
<g>
</g>
<g>
</g>
<g>
</g>
<g>
</g>
<g>
</g>
<g>
</g>
<g>
</g>
<g>
</g>
<g>
</g>
<g>
</g>
<g>
</g>
<g>
</g>
<g>
</g>
<g>
</g>
<g>
</g>
</svg>
