<?xml version="1.0" encoding="iso-8859-1"?>
<!-- Generator: Adobe Illustrator 19.1.0, SVG Export Plug-In . SVG Version: 6.00 Build 0)  -->
<svg version="1.1" id="Capa_1" xmlns="http://www.w3.org/2000/svg" xmlns:xlink="http://www.w3.org/1999/xlink" x="0px" y="0px"
	 viewBox="0 0 474.268 474.268" style="enable-background:new 0 0 474.268 474.268;" xml:space="preserve">
<g>
	<g id="XMLID_325_">
		<g>
			<path style="fill:#CCCCCC;" d="M412.24,279.674v0.01l-55.58,5.62c2-4.58,3.09-9.6,3.09-14.81c0-1.25-0.06-2.52-0.19-3.79
				c-0.66-6.55-3-12.56-6.56-17.63l55.58-5.62c0.71,7,4.07,13.07,8.96,17.39C413.61,266.044,411.54,272.674,412.24,279.674z"/>
			<path style="fill:#C66626;" d="M353,249.074c3.56,5.07,5.9,11.08,6.56,17.63c0.13,1.27,0.19,2.54,0.19,3.79
				c0,5.21-1.09,10.23-3.09,14.81c-3.71,8.56-10.58,15.57-19.39,19.36c-2.08,0.91-4.28,1.63-6.56,2.15l-87.79,19.9
				c-28.3,6.42-55.84-13.39-58.76-42.26c-0.17-1.66-0.25-3.31-0.25-4.95c0-26.71,22.01-48.8,49.35-48.23l83.1,1.77l6.9,0.15
				C335.51,233.454,346.38,239.634,353,249.074z"/>
			<path style="fill:#CCCCCC;" d="M351.72,179.894l-51.48,21.68c0.16-1.38,0.24-2.78,0.24-4.18c0-4.84-0.95-9.74-2.93-14.45
				c-2.55-6.06-6.54-11.13-11.43-14.93l-0.01-0.01l51.48-21.66l0.01-0.01c2.73,6.49,7.72,11.31,13.66,14
				C349.03,166.464,348.99,173.404,351.72,179.894z"/>
			<path style="fill:#C66626;" d="M330.71,306.814c2.28-0.52,4.48-1.24,6.56-2.15c-2.82,33.25-30.72,60.51-65.98,60.51H74.72
				c-37.21,0-66.22-30.35-66.22-66.07c0-3.98,0.36-8.03,1.11-12.11c5.14-27.95,17.1-53.19,33.98-74.12
				c14.07-17.47,31.57-31.95,51.38-42.5c23.4-12.47,50.02-19.46,78.04-19.46c23.82,0,46.64,5.06,67.32,14.23
				c14.11,6.27,27.23,14.45,39,24.25c6.99,5.82,13.5,12.21,19.45,19.11c6.56,7.59,12.45,15.79,17.58,24.54l-83.1-1.77
				c-27.34-0.57-49.35,21.52-49.35,48.23c0,1.64,0.08,3.29,0.25,4.95c2.92,28.87,30.46,48.68,58.76,42.26L330.71,306.814z"/>
			<path style="fill:#C66626;" d="M286.11,168.004l0.01,0.01c4.89,3.8,8.88,8.87,11.43,14.93c1.98,4.71,2.93,9.61,2.93,14.45
				c0,1.4-0.08,2.8-0.24,4.18c-0.26,2.36-0.75,4.68-1.46,6.93c-5.95-6.9-12.46-13.29-19.45-19.11c-11.77-9.8-24.89-17.98-39-24.25
				l12.69-3.6C264.81,158.204,277.01,160.924,286.11,168.004z"/>
			<path style="fill:#C66626;" d="M94.97,169.654c0.01,0.24,0.01,0.48,0,0.72c-19.81,10.55-37.31,25.03-51.38,42.5l-11.57-18.83
				c-6.81-11.1-1.53-25.65,10.82-29.79c10.8-3.62,20.58-9.44,28.8-16.97s14.87-16.76,19.43-27.2l2.44-5.6L94.97,169.654z"/>
		</g>
		<g>
			<path style="fill:none;stroke:#000000;stroke-width:17;stroke-linejoin:round;stroke-miterlimit:10;" d="M337.27,304.664
				c-2.82,33.25-30.72,60.51-65.98,60.51H74.72c-37.21,0-66.22-30.35-66.22-66.07c0-3.98,0.36-8.03,1.11-12.11
				c5.14-27.95,17.1-53.19,33.98-74.12c14.07-17.47,31.57-31.95,51.38-42.5c23.4-12.47,50.02-19.46,78.04-19.46
				c23.82,0,46.64,5.06,67.32,14.23c14.11,6.27,27.23,14.45,39,24.25c6.99,5.82,13.5,12.21,19.45,19.11
				c6.56,7.59,12.45,15.79,17.58,24.54"/>
			<path style="fill:none;stroke:#000000;stroke-width:17;stroke-linejoin:round;stroke-miterlimit:10;" d="M337.27,304.664
				c-2.08,0.91-4.28,1.63-6.56,2.15l-87.79,19.9c-28.3,6.42-55.84-13.39-58.76-42.26c-0.17-1.66-0.25-3.31-0.25-4.95
				c0-26.71,22.01-48.8,49.35-48.23l83.1,1.77l6.9,0.15c12.25,0.26,23.12,6.44,29.74,15.88c3.56,5.07,5.9,11.08,6.56,17.63
				c0.13,1.27,0.19,2.54,0.19,3.79c0,5.21-1.09,10.23-3.09,14.81C352.95,293.864,346.08,300.874,337.27,304.664z"/>
			<polyline style="fill:none;stroke:#000000;stroke-width:17;stroke-linejoin:round;stroke-miterlimit:10;" points="
				408.58,243.454 353,249.074 352.99,249.074 			"/>
			
				<line style="fill:none;stroke:#000000;stroke-width:17;stroke-linejoin:round;stroke-miterlimit:10;" x1="412.24" y1="279.684" x2="356.66" y2="285.304"/>
			<path style="fill:none;stroke:#000000;stroke-width:17;stroke-linejoin:round;stroke-miterlimit:10;" d="M412.24,279.684
				c1.51,14.73,14.66,25.47,29.4,23.98c14.74-1.49,25.48-14.65,23.99-29.39c-0.71-7-4.07-13.08-8.96-17.39
				c3.93-5.21,6-11.83,5.29-18.83c-1.49-14.75-14.65-25.49-29.39-24c-14.74,1.5-25.48,14.65-23.99,29.4
				c0.71,7,4.07,13.07,8.96,17.39c-3.93,5.2-6,11.83-5.3,18.83V279.684z"/>
			<path style="fill:none;stroke:#000000;stroke-width:17;stroke-linejoin:round;stroke-miterlimit:10;" d="M298.78,208.504
				c0.71-2.25,1.2-4.57,1.46-6.93c0.16-1.38,0.24-2.78,0.24-4.18c0-4.84-0.95-9.74-2.93-14.45c-2.55-6.06-6.54-11.13-11.43-14.93
				l-0.01-0.01c-9.1-7.08-21.3-9.8-33.09-6.46l-12.69,3.6"/>
			<polyline style="fill:none;stroke:#000000;stroke-width:17;stroke-linejoin:round;stroke-miterlimit:10;" points="
				337.59,146.344 286.11,168.004 286.1,168.014 			"/>
			<polyline style="fill:none;stroke:#000000;stroke-width:17;stroke-linejoin:round;stroke-miterlimit:10;" points="
				351.72,179.894 300.24,201.574 300.23,201.574 			"/>
			<path style="fill:none;stroke:#000000;stroke-width:17;stroke-linejoin:round;stroke-miterlimit:10;" d="M351.72,179.894
				c5.75,13.65,21.48,20.06,35.14,14.31c13.65-5.74,20.06-21.47,14.31-35.13c-2.73-6.48-7.72-11.31-13.66-14
				c2.23-6.13,2.27-13.07-0.46-19.56c-5.75-13.65-21.48-20.06-35.14-14.31c-13.65,5.74-20.06,21.47-14.31,35.13
				c2.73,6.49,7.72,11.31,13.66,14C349.03,166.464,348.99,173.404,351.72,179.894z"/>
			<path style="fill:none;stroke:#000000;stroke-width:17;stroke-linecap:round;stroke-linejoin:round;stroke-miterlimit:10;" d="
				M33.8,272.504l17.42-28.49c6.8-11.11,22.17-13.01,31.46-3.88c15.11,14.83,35.39,23.07,56.43,23.07c1.6,0,3.2-0.04,4.81-0.14
				l6.11-0.37l-48.5,26.34c-5.04,2.74-11.28,1.83-15.32-2.24c-2.59-2.61-5.88-3.82-9.12-3.82c-5.38,0-10.64,3.35-12.4,9.19
				l-3.92,13.01"/>
			<path style="fill:none;stroke:#000000;stroke-width:17;stroke-linejoin:round;stroke-miterlimit:10;" d="M43.59,212.874
				l-11.57-18.83c-6.81-11.1-1.53-25.65,10.82-29.79c10.8-3.62,20.58-9.44,28.8-16.97s14.87-16.76,19.43-27.2l2.44-5.6l1.46,55.17
				c0.01,0.24,0.01,0.48,0,0.72"/>
		</g>
	</g>
</g>
<g>
</g>
<g>
</g>
<g>
</g>
<g>
</g>
<g>
</g>
<g>
</g>
<g>
</g>
<g>
</g>
<g>
</g>
<g>
</g>
<g>
</g>
<g>
</g>
<g>
</g>
<g>
</g>
<g>
</g>
</svg>
