<?xml version="1.0" encoding="iso-8859-1"?>
<!-- Generator: Adobe Illustrator 19.0.0, SVG Export Plug-In . SVG Version: 6.00 Build 0)  -->
<svg version="1.1" id="Layer_1" xmlns="http://www.w3.org/2000/svg" xmlns:xlink="http://www.w3.org/1999/xlink" x="0px" y="0px"
	 viewBox="0 0 164 164" style="enable-background:new 0 0 164 164;" xml:space="preserve">
<g>
	<g>
		<g>
			<path style="fill:#56B300;" d="M108.363,113.889c0,0-2.043-15.227,16.381-15.915C124.745,97.974,123.842,115.115,108.363,113.889
				z"/>
		</g>
		<g>
			<path style="fill:#573A28;" d="M111.165,116.977c0,1.67-1.354,3.023-3.024,3.023h-0.952c-1.67,0-3.024-1.354-3.024-3.023
				l-1-17.953c0-1.67,2.354-3.023,4.024-3.023h0.952c1.67,0,3.024,1.354,3.024,3.023V116.977z"/>
		</g>
		<g>
			<path style="fill:#FFAE93;" d="M120.501,109.334c-5.074,0-9.75,2.049-13.5,5.494c-3.75-3.445-8.426-5.494-13.5-5.494
				c-12.335,0-22.334,12.088-22.334,27s9.999,27,22.334,27c5.074,0,9.75-2.049,13.5-5.494c3.75,3.445,8.426,5.494,13.5,5.494
				c12.334,0,22.333-12.088,22.333-27S132.835,109.334,120.501,109.334z"/>
		</g>
	</g>
	<g>
		<g>
			<rect x="21.167" y="36" style="fill:#C8C8C8;" width="67" height="128"/>
		</g>
		<g>
			<rect x="21.167" y="36" style="fill:#DEDEDE;" width="33" height="128"/>
		</g>
		<g>
			<rect x="29.167" y="36" style="fill:#E9E9E9;" width="52" height="111"/>
		</g>
		<g>
			<rect x="29.167" y="66" style="fill:#FFAE93;" width="52" height="81"/>
		</g>
		<g>
			<path style="fill:#FFFFFF;" d="M74.165,117.744c0,1.798-1.458,3.256-3.256,3.256h-0.487c-1.798,0-3.256-1.458-3.256-3.256V77.256
				c0-1.798,1.458-3.256,3.256-3.256h0.487c1.798,0,3.256,1.458,3.256,3.256V117.744z"/>
		</g>
		<g>
			<circle style="fill:#FFFFFF;" cx="70.406" cy="129.124" r="3.658"/>
		</g>
		<g>
			<g>
				<path style="fill:#FFFFFF;" d="M58.167,66h-8V16.57C50.167,7.124,57.61,0,67.48,0h31.687v8H67.48
					c-5.483,0-9.313,3.524-9.313,8.57C58.167,16.57,58.167,66,58.167,66z"/>
			</g>
			<g>
				<path style="fill:#DF1700;" d="M58.167,66h-8V54h8V66z M58.167,44h-8V32h8V44z M58.167,22h-8v-5.43
					c0-2.818,0.637-5.448,1.892-7.816l7.068,3.746c-0.637,1.203-0.96,2.572-0.96,4.07V22z M64.503,8.385l-2.099-7.721
					C64.027,0.224,65.734,0,67.48,0h7.687v8H67.48C66.443,8,65.441,8.129,64.503,8.385z M97.165,8h-12V0h12V8z"/>
			</g>
		</g>
	</g>
</g>
<g>
</g>
<g>
</g>
<g>
</g>
<g>
</g>
<g>
</g>
<g>
</g>
<g>
</g>
<g>
</g>
<g>
</g>
<g>
</g>
<g>
</g>
<g>
</g>
<g>
</g>
<g>
</g>
<g>
</g>
</svg>
