<?xml version="1.0" encoding="iso-8859-1"?>
<!-- Generator: Adobe Illustrator 19.0.0, SVG Export Plug-In . SVG Version: 6.00 Build 0)  -->
<svg version="1.1" id="Layer_1" xmlns="http://www.w3.org/2000/svg" xmlns:xlink="http://www.w3.org/1999/xlink" x="0px" y="0px"
	 viewBox="0 0 512 512" style="enable-background:new 0 0 512 512;" xml:space="preserve">
<circle style="fill:#A67C52;" cx="256.004" cy="256.004" r="248.144"/>
<circle style="fill:#8CC63F;" cx="256.004" cy="256.004" r="224.124"/>
<circle style="fill:#A3D165;" cx="256.004" cy="256.004" r="200.115"/>
<circle style="fill:#8CC63F;" cx="256.004" cy="256.004" r="136.072"/>
<path d="M256,512c-68.38,0-132.668-26.628-181.019-74.981C26.629,388.668,0,324.38,0,256S26.629,123.333,74.981,74.981
	C123.332,26.629,187.62,0,256,0c68.381,0,132.668,26.629,181.019,74.981S512,187.619,512,256s-26.628,132.668-74.981,181.019
	S324.381,512,256,512z M256,15.72c-64.181,0-124.52,24.994-169.903,70.376C40.714,131.479,15.72,191.819,15.72,256
	s24.994,124.521,70.376,169.904c45.383,45.382,105.722,70.376,169.903,70.376s124.521-24.994,169.904-70.376
	c45.383-45.383,70.376-105.723,70.376-169.904s-24.994-124.521-70.376-169.904C380.521,40.714,320.181,15.72,256,15.72z"/>
<circle style="fill:#006837;" cx="256.004" cy="256.004" r="72.039"/>
<path d="M256,487.986c-61.966,0-120.223-24.131-164.038-67.947C48.144,376.223,24.014,317.966,24.014,256
	s24.13-120.223,67.947-164.039s102.073-67.947,164.038-67.947s120.223,24.131,164.039,67.947
	c43.817,43.817,67.947,102.074,67.947,164.039s-24.13,120.223-67.947,164.039C376.222,463.855,317.966,487.986,256,487.986z
	 M256,39.734C136.751,39.734,39.734,136.751,39.734,256S136.751,472.266,256,472.266S472.266,375.249,472.266,256
	S375.249,39.734,256,39.734z"/>
<path d="M256,335.901c-44.058,0-79.9-35.844-79.9-79.901s35.842-79.9,79.9-79.9s79.901,35.844,79.901,79.9
	C335.901,300.058,300.058,335.901,256,335.901z M256,191.82c-35.39,0-64.18,28.792-64.18,64.18s28.792,64.181,64.18,64.181
	c35.391,0,64.181-28.792,64.181-64.181S291.39,191.82,256,191.82z"/>
<rect x="247.882" y="135.223" width="15.72" height="25.152"/>
<rect x="216.022" y="143.754" transform="matrix(-0.2588 -0.9659 0.9659 -0.2588 140.5952 411.1116)" width="24.013" height="15.719"/>
<rect x="189.969" y="154.551" transform="matrix(-0.5 -0.866 0.866 -0.5 162.3149 418.5328)" width="24.013" height="15.72"/>
<rect x="167.593" y="171.725" transform="matrix(-0.7071 -0.7071 0.7071 -0.7071 179.6109 433.5666)" width="24.014" height="15.72"/>
<rect x="150.401" y="194.105" transform="matrix(-0.866 -0.5 0.5 -0.866 202.0725 458.0757)" width="24.014" height="15.72"/>
<rect x="139.619" y="220.166" transform="matrix(-0.9659 -0.2588 0.2588 -0.9659 239.0696 487.5235)" width="24.013" height="15.719"/>
<rect x="135.747" y="248.406" width="24.104" height="15.72"/>
<rect x="143.76" y="271.95" transform="matrix(-0.2588 -0.9659 0.9659 -0.2588 -83.422 503.9012)" width="15.719" height="24.013"/>
<rect x="154.572" y="298.017" transform="matrix(-0.5 -0.866 0.866 -0.5 -24.837 605.7097)" width="15.72" height="24.014"/>
<rect x="171.717" y="320.395" transform="matrix(-0.7071 -0.7071 0.7071 -0.7071 71.5134 694.425)" width="15.72" height="24.014"/>
<rect x="194.107" y="337.571" transform="matrix(-0.866 -0.5 0.5 -0.866 202.0808 753.3032)" width="15.72" height="24.013"/>
<rect x="220.168" y="348.363" transform="matrix(-0.9659 -0.2588 0.2588 -0.9659 355.0185 767.4775)" width="15.718" height="24.014"/>
<rect x="247.882" y="352.147" width="15.72" height="24.104"/>
<rect x="271.971" y="352.504" transform="matrix(-0.2588 -0.9659 0.9659 -0.2588 9.387 727.9312)" width="24.013" height="15.719"/>
<rect x="298.034" y="341.711" transform="matrix(-0.5 -0.866 0.866 -0.5 162.3299 792.8607)" width="24.013" height="15.72"/>
<rect x="320.405" y="324.551" transform="matrix(-0.7071 -0.7071 0.7071 -0.7071 332.4112 802.512)" width="24.014" height="15.72"/>
<rect x="337.576" y="302.166" transform="matrix(-0.866 -0.5 0.5 -0.866 497.3114 753.3085)" width="24.013" height="15.72"/>
<rect x="348.374" y="276.09" transform="matrix(-0.9659 -0.2588 0.2588 -0.9659 634.9954 651.4944)" width="24.014" height="15.719"/>
<rect x="351.634" y="248.406" width="25.152" height="15.72"/>
<rect x="352.51" y="216.001" transform="matrix(-0.2588 -0.9659 0.9659 -0.2588 233.3968 635.1093)" width="15.719" height="24.014"/>
<rect x="341.733" y="189.953" transform="matrix(-0.5 -0.866 0.866 -0.5 349.4918 605.6946)" width="15.72" height="24.013"/>
<rect x="324.534" y="167.587" transform="matrix(-0.7071 -0.7071 0.7071 -0.7071 440.4403 541.6233)" width="15.72" height="24.014"/>
<rect x="302.158" y="150.406" transform="matrix(-0.866 -0.5 0.5 -0.866 497.2914 458.0784)" width="15.72" height="24.013"/>
<rect x="276.095" y="139.622" transform="matrix(-0.9659 -0.2589 0.2589 -0.9659 518.9705 371.6046)" width="15.72" height="24.014"/>
<circle style="fill:#A3D165;" cx="256.004" cy="256.004" r="48.028"/>
<path d="M256,311.887c-30.815,0-55.886-25.071-55.886-55.887s25.071-55.887,55.886-55.887c30.816,0,55.887,25.071,55.887,55.887
	S286.816,311.887,256,311.887z M256,215.832c-22.148,0-40.166,18.019-40.166,40.168s18.018,40.168,40.166,40.168
	s40.168-18.019,40.168-40.168S278.147,215.832,256,215.832z"/>
<rect x="171.773" y="118.862" transform="matrix(-0.4877 -0.873 0.873 -0.4877 162.7812 348.9656)" width="24.014" height="15.72"/>
<rect x="131.905" y="151.369" transform="matrix(-0.7569 -0.6536 0.6536 -0.7569 148.7669 373.8005)" width="24.015" height="15.721"/>
<rect x="105.576" y="195.535" transform="matrix(-0.9348 -0.3553 0.3553 -0.9348 155.2329 435.296)" width="24.015" height="15.721"/>
<rect x="95.935" y="246.043" transform="matrix(-0.9999 -0.0141 0.0141 -0.9999 212.2921 509.3024)" width="24.013" height="15.72"/>
<rect x="108.275" y="292.664" transform="matrix(-0.3286 -0.9445 0.9445 -0.3286 -133.4579 514.4702)" width="15.72" height="24.014"/>
<rect x="133.344" y="337.578" transform="matrix(-0.6319 -0.7751 0.7751 -0.6319 -40.5261 679.9226)" width="15.721" height="24.015"/>
<rect x="172.286" y="371.19" transform="matrix(-0.8589 -0.5122 0.5122 -0.8589 138.6006 804.5833)" width="15.72" height="24.014"/>
<rect x="220.353" y="389.469" transform="matrix(-0.9822 -0.1876 0.1876 -0.9822 377.0627 838.6368)" width="15.721" height="24.015"/>
<rect x="267.636" y="394.327" transform="matrix(-0.1597 -0.9872 0.9872 -0.1597 -72.7245 742.4683)" width="24.015" height="15.719"/>
<rect x="316.226" y="377.41" transform="matrix(-0.4877 -0.873 0.873 -0.4877 151.9691 859.717)" width="24.014" height="15.72"/>
<rect x="356.072" y="344.955" transform="matrix(-0.7569 -0.6536 0.6536 -0.7569 416.0763 860.4143)" width="24.015" height="15.721"/>
<rect x="382.416" y="300.774" transform="matrix(-0.9348 -0.3553 0.3553 -0.9348 653.4606 737.2645)" width="24.015" height="15.721"/>
<rect x="392.078" y="250.22" transform="matrix(-0.9999 -0.0141 0.0141 -0.9999 804.4902 521.8322)" width="24.014" height="15.72"/>
<rect x="387.972" y="195.33" transform="matrix(-0.3286 -0.9445 0.9445 -0.3286 330.0746 649.3192)" width="15.72" height="24.014"/>
<rect x="362.909" y="150.431" transform="matrix(-0.6319 -0.7751 0.7751 -0.6319 479.1489 552.451)" width="15.721" height="24.015"/>
<rect x="323.99" y="116.814" transform="matrix(-0.8589 -0.5122 0.5122 -0.8589 550.8879 409.4312)" width="15.72" height="24.014"/>
<rect x="275.923" y="98.559" transform="matrix(-0.9822 -0.1876 0.1876 -0.9822 541.7873 272.4057)" width="15.721" height="24.015"/>
<rect x="220.342" y="101.964" transform="matrix(-0.1597 -0.9872 0.9872 -0.1597 161.04 356.7293)" width="24.015" height="15.719"/>
<g>
</g>
<g>
</g>
<g>
</g>
<g>
</g>
<g>
</g>
<g>
</g>
<g>
</g>
<g>
</g>
<g>
</g>
<g>
</g>
<g>
</g>
<g>
</g>
<g>
</g>
<g>
</g>
<g>
</g>
</svg>
