<?xml version="1.0" encoding="iso-8859-1"?>
<!-- Generator: Adobe Illustrator 19.0.0, SVG Export Plug-In . SVG Version: 6.00 Build 0)  -->
<svg version="1.1" id="Layer_1" xmlns="http://www.w3.org/2000/svg" xmlns:xlink="http://www.w3.org/1999/xlink" x="0px" y="0px"
	 viewBox="0 0 512.004 512.004" style="enable-background:new 0 0 512.004 512.004;" xml:space="preserve">
<g>
	<path style="fill:#FFCF65;" d="M179.607,230.305c-2.959-2.959-6.147-5.545-9.509-7.763c-3.36,2.217-6.55,4.805-9.508,7.763
		c-12.546,12.545-18.374,29.227-17.596,45.654l50.928,17.427C201.275,271.746,195.317,246.016,179.607,230.305z"/>
	<path style="fill:#FFCF65;" d="M64.803,364.665c-14.619,0.617-29.059,6.439-40.22,17.6c-2.959,2.959-5.546,6.147-7.764,9.509
		c2.218,3.36,4.805,6.55,7.764,9.508c22.444,22.445,58.106,23.527,81.88,3.337L64.803,364.665z"/>
</g>
<path style="fill:#FFB450;" d="M176.483,280.841c-46.777-14.409-72.276-37.223-72.276-78.995c0-38.356,28.581-69.933,65.593-74.849
	c-0.003-0.131-0.018-0.259-0.019-0.39C90.934,131.789,28.572,197.322,28.572,277.48c0,75.941,95.799,196.937,204.438,128.358
	c4.013-2.533,6.67-6.725,7.468-11.402C244.365,371.639,249.428,303.308,176.483,280.841z"/>
<path style="fill:#FF4B4B;" d="M240.482,394.399c3.311-19.499,7.433-72.13-36.847-101.068
	c-32.201,22.723-15.304,48.724-32.712,66.132c-20.804,20.802-39.238,11.565-56.32,50.914L113.926,412
	c34.067,18.311,75.519,21.32,119.049-6.141C237.005,403.318,239.684,399.097,240.482,394.399z"/>
<g>
	<path style="fill:#FFCF65;" d="M332.397,281.699c2.959,2.959,6.147,5.545,9.509,7.763c3.36-2.217,6.55-4.805,9.508-7.763
		c12.546-12.545,18.374-29.227,17.596-45.654l-50.928-17.427C310.729,240.258,316.687,265.988,332.397,281.699z"/>
	<path style="fill:#FFCF65;" d="M447.201,147.338c14.619-0.617,29.059-6.439,40.22-17.6c2.959-2.959,5.546-6.147,7.764-9.509
		c-2.218-3.36-4.805-6.55-7.764-9.508c-22.444-22.445-58.106-23.527-81.88-3.337L447.201,147.338z"/>
</g>
<path style="fill:#FFB450;" d="M335.52,231.163c46.777,14.409,72.276,37.223,72.276,78.995c0,38.356-28.581,69.933-65.593,74.849
	c0.003,0.131,0.018,0.258,0.019,0.39c78.846-5.184,141.208-70.717,141.208-150.875c0-75.941-95.799-196.937-204.438-128.358
	c-4.013,2.533-6.67,6.725-7.468,11.402C267.639,140.365,262.576,208.695,335.52,231.163z"/>
<path style="fill:#FF4B4B;" d="M271.522,117.605c-3.311,19.499-7.433,72.131,36.847,101.068
	c32.201-22.723,15.304-48.724,32.712-66.132c20.804-20.802,39.238-11.565,56.32-50.914l0.676-1.624
	c-34.067-18.311-75.519-21.32-119.049,6.141C274.999,108.686,272.32,112.907,271.522,117.605z"/>
<g>
	<path style="fill:#FFCF65;" d="M198.764,126.206c10.88-7.225,18.059-19.577,18.059-33.616c0-2.113-0.211-4.173-0.525-6.198
		c-2.026-0.313-4.085-0.525-6.198-0.525c-22.279,0-40.34,18.06-40.34,40.34s18.06,40.34,40.34,40.34
		c2.113,0,4.173-0.211,6.198-0.525c0.313-2.026,0.525-4.085,0.525-6.198C216.823,145.783,209.643,133.43,198.764,126.206z"/>
	<path style="fill:#FFCF65;" d="M313.24,385.798c-10.88,7.225-18.059,19.577-18.059,33.616c0,2.113,0.211,4.173,0.525,6.198
		c2.026,0.313,4.085,0.525,6.198,0.525c22.279,0,40.34-18.06,40.34-40.34c0-22.279-18.06-40.34-40.34-40.34
		c-2.113,0-4.173,0.211-6.198,0.525c-0.313,2.026-0.525,4.085-0.525,6.198C295.181,366.221,302.361,378.573,313.24,385.798z"/>
</g>
<path d="M248.349,350.118c-3.745-21.878-15.028-49.324-46.046-66.913c6.642-23.772-0.082-50.614-17.302-67.833
	c-3.288-3.289-6.909-6.244-10.761-8.786c-2.675-1.765-6.145-1.764-8.821,0c-3.854,2.542-7.473,5.498-10.76,8.785
	c-10.126,10.125-16.734,23.177-19.066,37.152c-16.264-12.744-23.645-29.112-23.645-50.765c0-23.32,12.073-44.269,30.582-56.44
	c6.305-2.926,13.047-5.702,20.2-8.332c4.946,21.441,24.179,37.48,47.101,37.48c2.302,0,4.73-0.202,7.423-0.619
	c3.45-0.534,6.158-3.241,6.691-6.692c0.416-2.694,0.618-5.121,0.618-7.42c0-12.703-4.957-24.692-13.608-33.616
	c8.651-8.923,13.608-20.912,13.608-33.616c0-2.299-0.202-4.726-0.618-7.42c-0.533-3.451-3.24-6.159-6.691-6.692
	c-2.693-0.417-5.121-0.619-7.423-0.619c-24.291,0-44.447,18.009-47.839,41.375c-37.613,4.132-72.364,21.439-98.486,49.208
	c-27.866,29.623-43.212,68.347-43.212,109.041c0,24.175,9.153,52.918,25.112,78.86c0.283,0.46,0.582,0.907,0.869,1.365
	c-13.671,2.464-26.266,8.997-36.167,18.898c-3.289,3.288-6.244,6.909-8.786,10.761c-1.765,2.675-1.765,6.145,0,8.821
	c2.542,3.854,5.498,7.473,8.785,10.76c12.244,12.244,28.511,19.346,45.803,19.996c0.87,0.033,1.739,0.049,2.606,0.049
	c14.968,0,29.414-4.865,41.301-13.863c3.721,2.411,7.497,4.651,11.327,6.659c18.212,9.543,37.126,14.363,56.311,14.363
	c2.013,0,4.032-0.053,6.051-0.159c23.629-1.245,47.078-9.815,69.697-25.474c1.55-1.073,2.672-2.659,3.168-4.477
	C246.658,402.92,253.195,378.421,248.349,350.118z M208.521,93.813c-0.416,10.347-5.753,19.855-14.455,25.634
	c-2.235,1.484-3.578,3.988-3.578,6.671c0,2.683,1.343,5.187,3.578,6.671c8.701,5.779,14.037,15.287,14.455,25.634
	c-16.86-0.677-30.432-14.33-30.992-31.22c0.006-0.162,0.015-0.324,0.011-0.488c-0.004-0.157-0.012-0.312-0.022-0.483
	c-0.002-0.056-0.011-0.109-0.014-0.163C177.528,108.704,191.316,94.504,208.521,93.813z M165.986,226.696
	c1.225-1.225,2.51-2.39,3.846-3.487c1.335,1.097,2.619,2.262,3.845,3.487c12.363,12.363,17.707,32.055,13.874,49.525
	c-2.863-1.115-5.851-2.158-8.978-3.121l0,0c-10.66-3.283-19.908-6.934-27.859-11.029
	C151.157,248.801,156.585,236.095,165.986,226.696z M21.436,395.531c-1.225-1.225-2.39-2.51-3.487-3.846
	c1.097-1.335,2.262-2.62,3.487-3.845c9.283-9.283,21.676-14.703,34.896-15.262c0.104-0.004,0.204-0.02,0.308-0.029
	c8.822,11.519,18.776,21.808,29.462,30.494C65.797,415.546,38.726,412.82,21.436,395.531z M110.414,400.818
	c-45.99-28.534-74.101-84.782-74.101-123.426c0-35.137,12.84-67.548,34.157-92.622c-6.331,11.137-9.994,23.095-10.896,35.773
	c-1.263,17.782,2.424,46.064,27.166,79.824c15.455,21.088,36.285,39.803,54.363,48.84c1.15,0.576,2.372,0.847,3.575,0.847
	c2.937,0,5.766-1.623,7.169-4.428c1.979-3.956,0.375-8.766-3.581-10.744c-27.99-13.995-76.227-63.793-72.716-113.204
	c1.217-17.129,8.731-32.809,22.334-46.601c1.212-1.229,2.488-2.439,3.796-3.639c-3.709,9.445-5.749,19.68-5.749,30.317
	c0,22.622,6.812,40.712,20.828,55.307c12.623,13.144,31.3,23.396,57.097,31.342l0,0c5.677,1.749,10.95,3.834,15.835,6.239
	c-14.009,13.126-16.033,27.09-17.706,38.659c-1.212,8.377-2.169,14.994-7.339,20.164c-6.507,6.507-12.731,9.535-19.321,12.742
	C133.595,371.918,121.486,377.816,110.414,400.818z M231.557,396.977c-43.526,28.928-81.274,23.137-107.02,11.436
	c8.728-18.512,17.212-22.649,27.8-27.801c7.14-3.473,15.232-7.41,23.64-15.818c8.934-8.933,10.491-19.698,11.865-29.196
	c1.624-11.224,3.175-21.875,16.16-32.131c15.262,11.72,24.81,28.055,28.478,48.859C235.963,372.097,232.963,390.25,231.557,396.977z
	"/>
<circle cx="153.228" cy="402.202" r="8.008"/>
<circle cx="204.482" cy="333.864" r="8.008"/>
<path d="M263.655,161.886c3.745,21.878,15.028,49.324,46.046,66.913c-6.642,23.772,0.082,50.614,17.302,67.833
	c3.288,3.289,6.909,6.244,10.761,8.786c2.675,1.765,6.145,1.764,8.821,0c3.854-2.542,7.473-5.498,10.76-8.785
	c10.126-10.125,16.734-23.177,19.066-37.152c16.264,12.744,23.645,29.112,23.645,50.765c0,23.32-12.073,44.269-30.582,56.44
	c-6.305,2.926-13.047,5.702-20.2,8.332c-4.946-21.441-24.179-37.48-47.101-37.48c-2.302,0-4.73,0.202-7.423,0.619
	c-3.45,0.534-6.158,3.241-6.691,6.692c-0.416,2.694-0.618,5.121-0.618,7.42c0,12.703,4.957,24.692,13.608,33.616
	c-8.651,8.923-13.608,20.912-13.608,33.616c0,2.299,0.202,4.726,0.618,7.42c0.533,3.451,3.24,6.159,6.691,6.692
	c2.693,0.418,5.121,0.619,7.423,0.619c24.291,0,44.447-18.009,47.839-41.375c37.613-4.132,72.364-21.439,98.486-49.208
	c27.866-29.623,43.212-68.347,43.212-109.041c0-24.175-9.153-52.918-25.112-78.86c-0.283-0.46-0.582-0.907-0.869-1.365
	c13.671-2.464,26.266-8.997,36.167-18.898c3.289-3.288,6.244-6.909,8.786-10.761c1.765-2.675,1.765-6.145,0-8.821
	c-2.542-3.854-5.498-7.473-8.785-10.76c-12.244-12.244-28.511-19.346-45.803-19.996c-0.87-0.033-1.739-0.049-2.606-0.049
	c-14.968,0-29.414,4.865-41.301,13.863c-3.721-2.411-7.497-4.651-11.327-6.659c-18.212-9.543-37.126-14.363-56.311-14.363
	c-2.013,0-4.032,0.053-6.051,0.159c-23.629,1.245-47.078,9.815-69.697,25.474c-1.55,1.073-2.672,2.659-3.168,4.477
	C265.346,109.084,258.809,133.583,263.655,161.886z M303.483,418.191c0.416-10.347,5.753-19.855,14.454-25.634
	c2.235-1.484,3.578-3.988,3.578-6.671c0-2.683-1.343-5.187-3.578-6.671c-8.701-5.779-14.037-15.287-14.454-25.634
	c16.86,0.677,30.432,14.33,30.992,31.22c-0.006,0.162-0.015,0.324-0.011,0.488c0.004,0.157,0.012,0.312,0.022,0.483
	c0.002,0.056,0.011,0.109,0.014,0.163C334.476,403.3,320.688,417.5,303.483,418.191z M346.018,285.308
	c-1.225,1.225-2.51,2.39-3.846,3.487c-1.335-1.097-2.619-2.262-3.845-3.487c-12.363-12.363-17.707-32.055-13.874-49.525
	c2.863,1.115,5.851,2.158,8.978,3.121l0,0c10.66,3.283,19.908,6.934,27.859,11.029C360.847,263.203,355.418,275.909,346.018,285.308
	z M490.567,116.473c1.225,1.225,2.39,2.51,3.487,3.846c-1.097,1.335-2.262,2.62-3.487,3.845
	c-9.283,9.283-21.676,14.703-34.896,15.262c-0.104,0.004-0.204,0.02-0.307,0.029c-8.822-11.519-18.776-21.808-29.462-30.494
	C446.206,96.458,473.278,99.184,490.567,116.473z M401.589,111.185c45.99,28.534,74.101,84.782,74.101,123.426
	c0,35.137-12.84,67.548-34.157,92.622c6.331-11.137,9.994-23.095,10.896-35.773c1.263-17.782-2.424-46.064-27.166-79.824
	c-15.455-21.088-36.285-39.803-54.363-48.84c-1.15-0.576-2.372-0.847-3.575-0.847c-2.937,0-5.766,1.623-7.169,4.428
	c-1.979,3.956-0.375,8.766,3.581,10.744c27.99,13.995,76.227,63.793,72.716,113.204c-1.217,17.129-8.731,32.809-22.334,46.601
	c-1.212,1.229-2.488,2.439-3.796,3.639c3.709-9.444,5.749-19.68,5.749-30.317c0-22.622-6.812-40.712-20.828-55.307
	c-12.623-13.144-31.3-23.396-57.097-31.343l0,0c-5.677-1.749-10.95-3.834-15.835-6.239c14.009-13.126,16.033-27.09,17.706-38.659
	c1.212-8.377,2.169-14.994,7.339-20.164c6.507-6.507,12.731-9.535,19.321-12.742C378.409,140.086,390.517,134.188,401.589,111.185z
	 M280.447,115.027c43.526-28.928,81.274-23.137,107.02-11.436c-8.728,18.512-17.212,22.649-27.8,27.801
	c-7.14,3.473-15.232,7.41-23.64,15.818c-8.934,8.933-10.491,19.698-11.865,29.196c-1.624,11.224-3.174,21.875-16.16,32.131
	c-15.262-11.72-24.81-28.055-28.478-48.859C276.041,139.907,279.04,121.754,280.447,115.027z"/>
<circle cx="358.776" cy="109.802" r="8.008"/>
<circle cx="307.522" cy="178.139" r="8.008"/>
<g>
</g>
<g>
</g>
<g>
</g>
<g>
</g>
<g>
</g>
<g>
</g>
<g>
</g>
<g>
</g>
<g>
</g>
<g>
</g>
<g>
</g>
<g>
</g>
<g>
</g>
<g>
</g>
<g>
</g>
</svg>
