<?xml version="1.0" encoding="iso-8859-1"?>
<!-- Generator: Adobe Illustrator 19.0.0, SVG Export Plug-In . SVG Version: 6.00 Build 0)  -->
<svg version="1.1" id="Layer_1" xmlns="http://www.w3.org/2000/svg" xmlns:xlink="http://www.w3.org/1999/xlink" x="0px" y="0px"
	 viewBox="0 0 261.913 261.913" style="enable-background:new 0 0 261.913 261.913;" xml:space="preserve">
<g>
	<path style="fill:#F59D00;" d="M202.822,7.5H59.092c-10.407,0-18.843,8.437-18.843,18.844l0,0c0,10.407,8.437,18.844,18.843,18.844
		h143.729c10.407,0,18.843-8.437,18.843-18.844l0,0C221.665,15.936,213.229,7.5,202.822,7.5z"/>
	<path style="fill:#FFE49C;" d="M65.703,45.187L40.249,70.642v162.77c0,11.598,9.402,21,21,21h139.417c11.598,0,21-9.402,21-21
		V70.642l-25.455-25.455H65.703z"/>
	<rect x="40.249" y="116.539" style="fill:#80D0E1;" width="181.417" height="66.521"/>
	<g>
		<path style="fill:#414042;" d="M226.969,65.338l-14.492-14.491c9.761-3.86,16.688-13.385,16.688-24.503
			C229.165,11.817,217.348,0,202.822,0H59.092C44.567,0,32.749,11.817,32.749,26.344c0,11.118,6.926,20.643,16.688,24.503
			L34.945,65.338c-1.407,1.407-2.197,3.314-2.197,5.304v45.897v66.521v50.353c0,15.715,12.785,28.5,28.5,28.5h139.417
			c15.715,0,28.5-12.785,28.5-28.5V183.06v-66.521V70.642C229.166,68.652,228.376,66.745,226.969,65.338z M59.092,15h143.729
			c6.255,0,11.343,5.089,11.343,11.344s-5.088,11.344-11.343,11.344c-5.245,0-138.827,0-143.729,0
			c-6.255,0-11.343-5.089-11.343-11.344S52.838,15,59.092,15z M68.81,52.688h124.295l21.061,21.061v35.291H47.749V73.748
			L68.81,52.688z M214.166,175.56H47.749v-51.521h166.417L214.166,175.56L214.166,175.56z M200.666,246.912H61.249
			c-7.444,0-13.5-6.056-13.5-13.5V190.56h166.417v42.853C214.166,240.857,208.109,246.912,200.666,246.912z"/>
		<path style="fill:#414042;" d="M75.957,157.3h110c4.142,0,7.5-3.357,7.5-7.5s-3.358-7.5-7.5-7.5h-110c-4.142,0-7.5,3.357-7.5,7.5
			C68.457,153.942,71.815,157.3,75.957,157.3z"/>
	</g>
</g>
<g>
</g>
<g>
</g>
<g>
</g>
<g>
</g>
<g>
</g>
<g>
</g>
<g>
</g>
<g>
</g>
<g>
</g>
<g>
</g>
<g>
</g>
<g>
</g>
<g>
</g>
<g>
</g>
<g>
</g>
</svg>
