<?xml version="1.0" encoding="iso-8859-1"?>
<!-- Generator: Adobe Illustrator 19.0.0, SVG Export Plug-In . SVG Version: 6.00 Build 0)  -->
<svg version="1.1" id="Layer_1" xmlns="http://www.w3.org/2000/svg" xmlns:xlink="http://www.w3.org/1999/xlink" x="0px" y="0px"
	 viewBox="0 0 164 164" style="enable-background:new 0 0 164 164;" xml:space="preserve">
<g>
	<g>
		<g>
			<path style="fill:#56B300;" d="M110.968,113.889c0,0-2.043-15.227,16.381-15.916C127.35,97.974,126.447,115.116,110.968,113.889z
				"/>
		</g>
		<g>
			<path style="fill:#573A28;" d="M112.771,121.976c0,1.67-1.354,3.024-3.024,3.024h-0.952c-1.67,0-3.024-1.354-3.024-3.024
				l-1-17.952c0-1.67,2.354-3.024,4.024-3.024h0.952c1.67,0,3.024,1.354,3.024,3.024V121.976z"/>
		</g>
		<g>
			<circle style="fill:#FF7500;" cx="111.177" cy="137.948" r="26.052"/>
		</g>
	</g>
	<g>
		<g>
			<rect x="26.771" y="36" style="fill:#C8C8C8;" width="67" height="128"/>
		</g>
		<g>
			<rect x="26.771" y="36" style="fill:#DEDEDE;" width="33" height="128"/>
		</g>
		<g>
			<rect x="33.771" y="36" style="fill:#E9E9E9;" width="53" height="111"/>
		</g>
		<g>
			<rect x="33.771" y="66" style="fill:#FF7500;" width="53" height="81"/>
		</g>
		<g>
			<path style="fill:#FFFFFF;" d="M79.771,117.744c0,1.798-1.458,3.256-3.257,3.256h-0.486c-1.799,0-3.257-1.458-3.257-3.256V77.256
				c0-1.798,1.458-3.256,3.257-3.256h0.486c1.799,0,3.257,1.458,3.257,3.256C79.771,77.256,79.771,117.744,79.771,117.744z"/>
		</g>
		<g>
			<circle style="fill:#FFFFFF;" cx="75.532" cy="129.124" r="3.658"/>
		</g>
		<g>
			<g>
				<path style="fill:#FFFFFF;" d="M62.771,66h-8V16.571C54.771,7.279,62.605,0,72.606,0h31.165v8H72.606
					c-4.768,0-9.835,3.004-9.835,8.571C62.771,16.571,62.771,66,62.771,66z"/>
			</g>
			<g>
				<path style="fill:#DF1700;" d="M62.771,66h-8V54h8V66z M62.771,44h-8V32h8V44z M62.771,22h-8v-5.429
					c0-2.831,0.685-5.481,2.035-7.877l6.97,3.927c-0.667,1.183-1.004,2.512-1.004,3.95L62.771,22L62.771,22z M69.339,8.452
					l-2.211-7.689C68.889,0.257,70.732,0,72.606,0h7.165v8h-7.165C71.48,8,70.381,8.152,69.339,8.452z M101.771,8h-12V0h12V8z"/>
			</g>
		</g>
	</g>
</g>
<g>
</g>
<g>
</g>
<g>
</g>
<g>
</g>
<g>
</g>
<g>
</g>
<g>
</g>
<g>
</g>
<g>
</g>
<g>
</g>
<g>
</g>
<g>
</g>
<g>
</g>
<g>
</g>
<g>
</g>
</svg>
