<?xml version="1.0" encoding="iso-8859-1"?>
<!-- Generator: Adobe Illustrator 19.0.0, SVG Export Plug-In . SVG Version: 6.00 Build 0)  -->
<svg version="1.1" id="Layer_1" xmlns="http://www.w3.org/2000/svg" xmlns:xlink="http://www.w3.org/1999/xlink" x="0px" y="0px"
	 viewBox="0 0 164 164" style="enable-background:new 0 0 164 164;" xml:space="preserve">
<g>
	<g>
		<g>
			<path style="fill:#56B300;" d="M124.58,125.621c0,0,13.005-10.174,23.662,6.532C148.242,132.152,131.859,140.638,124.58,125.621z
				"/>
		</g>
		<g>
			<path style="fill:#FF9BB8;" d="M118.193,131.741c-1.549,0.907-3.539,0.39-4.448-1.159l-0.252-0.432
				c-0.909-1.548-0.391-3.54,1.157-4.448l16.821-9.866c1.548-0.909,3.539-0.39,4.447,1.159l0.253,0.431
				c0.909,1.547,0.389,3.539-1.159,4.447L118.193,131.741z"/>
		</g>
		<g>
			<path style="fill:#793B76;" d="M132.517,144.798c-2.387-4.066-6.688-6.3-11.088-6.249c2.192-3.814,2.342-8.66-0.043-12.727
				c-2.385-4.067-6.689-6.301-11.089-6.249c2.193-3.813,2.344-8.66-0.043-12.726c-3.54-6.035-11.3-8.056-17.334-4.517
				c-6.034,3.54-8.057,11.3-4.518,17.335c0.007,0.012,0.016,0.023,0.024,0.036c-2.155,0.011-4.336,0.562-6.328,1.73
				c-5.688,3.336-7.807,10.419-5.069,16.275c-1.084,0.288-2.15,0.713-3.167,1.308c-6.035,3.54-8.057,11.301-4.518,17.335
				c3.541,6.034,11.302,8.056,17.335,4.516c1.016-0.595,1.907-1.318,2.688-2.125c3.774,5.247,10.992,6.854,16.68,3.518
				c1.993-1.169,3.537-2.804,4.6-4.68c0.007,0.012,0.013,0.026,0.02,0.039c3.54,6.035,11.3,8.056,17.334,4.516
				C134.033,158.593,136.057,150.833,132.517,144.798z"/>
		</g>
	</g>
	<g>
		<g>
			<rect x="15.758" y="36" style="fill:#C8C8C8;" width="67" height="128"/>
		</g>
		<g>
			<rect x="15.758" y="36" style="fill:#DEDEDE;" width="33" height="128"/>
		</g>
		<g>
			<rect x="22.758" y="36" style="fill:#E9E9E9;" width="53" height="111"/>
		</g>
		<g>
			<rect x="22.758" y="66" style="fill:#793B76;" width="53" height="81"/>
		</g>
		<g>
			<path style="fill:#FFFFFF;" d="M68.758,117.744c0,1.798-1.458,3.256-3.256,3.256h-0.488c-1.798,0-3.256-1.458-3.256-3.256V77.256
				c0-1.798,1.458-3.256,3.256-3.256h0.488c1.798,0,3.256,1.458,3.256,3.256V117.744z"/>
		</g>
		<g>
			<circle style="fill:#FFFFFF;" cx="64.476" cy="129.124" r="3.658"/>
		</g>
		<g>
			<g>
				<path style="fill:#FFFFFF;" d="M51.758,66h-8V16.571C43.758,7.279,51.573,0,61.55,0h31.208v8H61.55
					c-4.747,0-9.792,3.004-9.792,8.571V66z"/>
			</g>
			<g>
				<path style="fill:#DF1700;" d="M51.758,66h-8V54h8V66z M51.758,44h-8V32h8V44z M51.758,22h-8v-5.429
					c0-2.829,0.681-5.478,2.022-7.872l6.979,3.911c-0.664,1.185-1.001,2.518-1.001,3.961V22z M58.308,8.446l-2.203-7.69
					C57.853,0.254,59.685,0,61.55,0h7.208v8H61.55C60.432,8,59.341,8.15,58.308,8.446z M90.758,8h-12V0h12V8z"/>
			</g>
		</g>
	</g>
</g>
<g>
</g>
<g>
</g>
<g>
</g>
<g>
</g>
<g>
</g>
<g>
</g>
<g>
</g>
<g>
</g>
<g>
</g>
<g>
</g>
<g>
</g>
<g>
</g>
<g>
</g>
<g>
</g>
<g>
</g>
</svg>
