<?xml version="1.0" encoding="iso-8859-1"?>
<!-- Generator: Adobe Illustrator 19.0.0, SVG Export Plug-In . SVG Version: 6.00 Build 0)  -->
<svg xmlns="http://www.w3.org/2000/svg" xmlns:xlink="http://www.w3.org/1999/xlink" version="1.1" id="Layer_1" x="0px" y="0px" viewBox="0 0 502 502" style="enable-background:new 0 0 502 502;" xml:space="preserve" width="512" height="512">
<g>
	<g>
		<polygon style="fill:#E6E6E6;" points="372.103,460.67 129.898,460.67 135.923,492 366.078,492   "/>
		<polygon style="fill:#C1272D;" points="134.718,42.535 122.668,77.48 122.668,460.67 379.333,460.67 379.333,77.48     367.283,42.535   "/>
		<rect x="134.718" y="10" style="fill:#E6E6E6;" width="232.565" height="32.535"/>
		<path style="fill:#C1272D;" d="M297.393,49.765c0,0,22.895,108.45,21.69,206.055c-1.205,97.605-38.56,202.44-38.56,202.44"/>
		<path style="fill:#C1272D;" d="M340.773,459.465c0,0-4.564-12.694-9.64-46.995"/>
	</g>
	<g>
		<path d="M388.786,74.221l-11.504-33.362V10c0-5.522-4.478-10-10-10H134.718c-5.523,0-10,4.478-10,10v30.86l-11.503,33.361    c-0.362,1.049-0.546,2.15-0.546,3.26V460.67c0,5.171,3.925,9.425,8.959,9.945l4.476,23.273c0.906,4.708,5.025,8.111,9.82,8.111    h230.155c4.795,0,8.914-3.403,9.82-8.111l4.476-23.273c5.033-0.521,8.959-4.774,8.959-9.945V77.48    C389.332,76.371,389.148,75.27,388.786,74.221z M348.626,450.67c-1.69-6.461-4.549-19.036-7.601-39.664    c-0.809-5.464-5.896-9.235-11.356-8.429c-5.463,0.809-9.236,5.893-8.429,11.356c2.518,17.014,4.938,28.923,6.782,36.736h-34.397    c9.597-29.617,34.458-113.877,35.456-194.727c1.061-85.94-16.553-181.158-20.931-203.408h52.002l9.18,26.621V450.67H348.626z     M132.668,79.156l9.18-26.621h145.907c1.926,9.394,22.456,111.841,21.329,203.162c-1.035,83.887-29.721,174.574-36.537,194.973    H132.668V79.156z M144.718,20h212.565v12.535H144.718V20z M357.818,482H144.183l-2.179-11.33h217.992L357.818,482z"/>
		<path d="M163.638,209.67c-5.523,0-10,4.478-10,10V419.7c0,5.522,4.477,10,10,10s10-4.478,10-10V219.67    C173.638,214.147,169.161,209.67,163.638,209.67z"/>
		<path d="M163.638,132.55c-5.523,0-10,4.478-10,10v24.101c0,5.522,4.477,10,10,10s10-4.478,10-10V142.55    C173.638,137.027,169.161,132.55,163.638,132.55z"/>
	</g>
</g>















</svg>
