<?xml version="1.0" encoding="iso-8859-1"?>
<!-- Generator: Adobe Illustrator 19.0.0, SVG Export Plug-In . SVG Version: 6.00 Build 0)  -->
<svg version="1.1" id="Layer_1" xmlns="http://www.w3.org/2000/svg" xmlns:xlink="http://www.w3.org/1999/xlink" x="0px" y="0px"
	 viewBox="0 0 164 164" style="enable-background:new 0 0 164 164;" xml:space="preserve">
<g>
	<g>
		<g>
			<path style="fill:#56B300;" d="M149.5,111.591c0,28.944-23.464,52.409-52.409,52.409c-28.944,0-52.409-23.465-52.409-52.409"/>
		</g>
		<g>
			<path style="fill:#DDF0CC;" d="M140.765,111.591c0,24.12-19.554,43.675-43.674,43.675s-43.674-19.555-43.674-43.675"/>
		</g>
		<g>
			<path style="fill:#FFB000;" d="M124.293,111.591c0,15.024-12.179,27.203-27.202,27.203s-27.202-12.18-27.202-27.203"/>
		</g>
		<g>
			<path style="fill:#FFFFFF;" d="M101.832,111.592c0,2.619-2.122,4.741-4.741,4.741c-2.619,0-4.741-2.122-4.741-4.741"/>
		</g>
		<g>
			<circle style="fill:#FFFFFF;" cx="83.64" cy="120.639" r="4.742"/>
		</g>
		<g>
			<path style="fill:#FFFFFF;" d="M93.266,129.911c0-2.618,2.123-4.739,4.741-4.739c2.618,0.001,4.741,2.121,4.741,4.739
				c0,2.62-2.123,4.741-4.741,4.741S93.266,132.533,93.266,129.911z"/>
		</g>
		<g>
			<circle style="fill:#FFFFFF;" cx="111.915" cy="119.846" r="4.741"/>
		</g>
	</g>
	<g>
		<g>
			<rect x="14.5" y="36" style="fill:#C8C8C8;" width="67" height="128"/>
		</g>
		<g>
			<rect x="14.5" y="36" style="fill:#DEDEDE;" width="33" height="128"/>
		</g>
		<g>
			<rect x="22.5" y="36" style="fill:#E9E9E9;" width="52" height="111"/>
		</g>
		<g>
			<rect x="22.5" y="66" style="fill:#D5E44F;" width="52" height="81"/>
		</g>
		<g>
			<path style="fill:#FFFFFF;" d="M67.5,117.744c0,1.798-1.458,3.256-3.256,3.256h-0.488c-1.798,0-3.256-1.458-3.256-3.256V77.256
				c0-1.798,1.458-3.256,3.256-3.256h0.488c1.798,0,3.256,1.458,3.256,3.256V117.744z"/>
		</g>
		<g>
			<circle style="fill:#FFFFFF;" cx="63.74" cy="129.124" r="3.658"/>
		</g>
		<g>
			<g>
				<path style="fill:#FFFFFF;" d="M51.5,66h-8V16.57C43.5,7.124,50.943,0,60.813,0H92.5v8H60.813C55.33,8,51.5,11.524,51.5,16.57
					V66z"/>
			</g>
			<g>
				<path style="fill:#DF1700;" d="M51.5,66h-8V54h8V66z M51.5,44h-8V32h8V44z M51.5,22h-8v-5.43c0-2.817,0.637-5.447,1.891-7.815
					l7.07,3.744c-0.638,1.203-0.961,2.573-0.961,4.071V22z M57.838,8.385L55.74,0.664C57.362,0.224,59.069,0,60.813,0H68.5v8h-7.687
					C59.777,8,58.776,8.129,57.838,8.385z M90.5,8h-12V0h12V8z"/>
			</g>
		</g>
	</g>
</g>
<g>
</g>
<g>
</g>
<g>
</g>
<g>
</g>
<g>
</g>
<g>
</g>
<g>
</g>
<g>
</g>
<g>
</g>
<g>
</g>
<g>
</g>
<g>
</g>
<g>
</g>
<g>
</g>
<g>
</g>
</svg>
