<?xml version="1.0" encoding="iso-8859-1"?>
<!-- Generator: Adobe Illustrator 19.0.0, SVG Export Plug-In . SVG Version: 6.00 Build 0)  -->
<svg version="1.1" id="Layer_1" xmlns="http://www.w3.org/2000/svg" xmlns:xlink="http://www.w3.org/1999/xlink" x="0px" y="0px"
	 viewBox="0 0 164 164" style="enable-background:new 0 0 164 164;" xml:space="preserve">
<g>
	<g>
		<g>
			<path style="fill:#56B300;" d="M147,113.091C147,141.207,124.208,164,96.091,164c-28.116,0-50.909-22.793-50.909-50.909"/>
		</g>
		<g>
			<path style="fill:#DDF0CC;" d="M138.515,113.091c0,23.43-18.994,42.425-42.424,42.425s-42.424-18.995-42.424-42.425"/>
		</g>
		<g>
			<path style="fill:#FF3F38;" d="M132.932,113.091c0,20.348-16.493,36.841-36.841,36.841S59.25,133.439,59.25,113.091"/>
		</g>
		<g>
			<path style="fill:#573A28;" d="M100.696,113.092c0,2.544-2.062,4.606-4.605,4.606c-2.544,0-4.605-2.062-4.605-4.606"/>
		</g>
		<g>
			<circle style="fill:#723D1A;" cx="77.025" cy="124.879" r="4.607"/>
		</g>
		<g>
			<circle style="fill:#573A28;" cx="96.98" cy="135.887" r="4.605"/>
		</g>
		<g>
			<circle style="fill:#573A28;" cx="116.491" cy="124.109" r="4.605"/>
		</g>
	</g>
	<g>
		<g>
			<rect x="17" y="36" style="fill:#C8C8C8;" width="67" height="128"/>
		</g>
		<g>
			<rect x="17" y="36" style="fill:#DEDEDE;" width="33" height="128"/>
		</g>
		<g>
			<rect x="24" y="36" style="fill:#E9E9E9;" width="53" height="111"/>
		</g>
		<g>
			<rect x="24" y="66" style="fill:#FF3F38;" width="53" height="81"/>
		</g>
		<g>
			<path style="fill:#FFFFFF;" d="M70,117.744c0,1.798-1.458,3.256-3.256,3.256h-0.488c-1.798,0-3.256-1.458-3.256-3.256V77.256
				C63,75.458,64.458,74,66.256,74h0.488C68.542,74,70,75.458,70,77.256V117.744z"/>
		</g>
		<g>
			<circle style="fill:#FFFFFF;" cx="65.718" cy="129.124" r="3.658"/>
		</g>
		<g>
			<g>
				<path style="fill:#FFFFFF;" d="M53,66h-8V16.57C45,7.278,52.815,0,62.792,0H94v8H62.792C58.045,8,53,11.004,53,16.57V66z"/>
			</g>
			<g>
				<path style="fill:#DF1700;" d="M53,66h-8V54h8V66z M53,44h-8V32h8V44z M53,22h-8v-5.43c0-2.83,0.681-5.478,2.022-7.872
					l6.979,3.912C53.337,13.795,53,15.127,53,16.57V22z M59.55,8.446l-2.203-7.69C59.095,0.255,60.927,0.001,62.79,0H70v8h-7.208
					C61.674,8,60.582,8.15,59.55,8.446z M92,8H80V0h12V8z"/>
			</g>
		</g>
	</g>
</g>
<g>
</g>
<g>
</g>
<g>
</g>
<g>
</g>
<g>
</g>
<g>
</g>
<g>
</g>
<g>
</g>
<g>
</g>
<g>
</g>
<g>
</g>
<g>
</g>
<g>
</g>
<g>
</g>
<g>
</g>
</svg>
