<?xml version="1.0" encoding="iso-8859-1"?>
<!-- Generator: Adobe Illustrator 19.0.0, SVG Export Plug-In . SVG Version: 6.00 Build 0)  -->
<svg version="1.1" id="Layer_1" xmlns="http://www.w3.org/2000/svg" xmlns:xlink="http://www.w3.org/1999/xlink" x="0px" y="0px"
	 viewBox="0 0 496.2 496.2" style="enable-background:new 0 0 496.2 496.2;" xml:space="preserve">
<path style="fill:#334D5C;" d="M496.2,248.1C496.2,111.1,385.1,0,248.1,0S0,111.1,0,248.1s111.1,248.1,248.1,248.1
	S496.2,385.1,496.2,248.1z"/>
<path style="fill:#424242;" d="M363.2,408.8c0,5.1-4.2,9.3-9.3,9.3H142.3c-5.1,0-9.3-4.2-9.3-9.3V87.4c0-5.1,4.2-9.3,9.3-9.3h211.6
	c5.1,0,9.3,4.2,9.3,9.3L363.2,408.8L363.2,408.8z"/>
<path style="fill:#6C6D6D;" d="M344.2,188c0,3-2.4,5.4-5.4,5.4H158.2c-3,0-5.4-2.4-5.4-5.4V99.6c0-3,2.4-5.4,5.4-5.4h180.6
	c3,0,5.4,2.4,5.4,5.4V188z"/>
<path style="fill:#74C59C;" d="M337.6,179.8c0,2.8-2.3,5.1-5.1,5.1H164.4c-2.8,0-5.1-2.3-5.1-5.1v-72c0-2.8,2.3-5.1,5.1-5.1h168.1
	c2.8,0,5.1,2.3,5.1,5.1L337.6,179.8L337.6,179.8z"/>
<g>
	<path style="fill:#46A5A0;" d="M186.3,393.2c0,3-2.4,5.4-5.4,5.4h-22.7c-3,0-5.4-2.4-5.4-5.4v-22.7c0-3,2.4-5.4,5.4-5.4h22.7
		c3,0,5.4,2.4,5.4,5.4V393.2z"/>
	<path style="fill:#46A5A0;" d="M225.4,393.2c0,3-2.4,5.4-5.4,5.4h-22.7c-3,0-5.4-2.4-5.4-5.4v-22.7c0-3,2.4-5.4,5.4-5.4H220
		c3,0,5.4,2.4,5.4,5.4V393.2z"/>
</g>
<path style="fill:#777776;" d="M264.6,393.2c0,3-2.4,5.4-5.4,5.4h-22.7c-3,0-5.4-2.4-5.4-5.4v-22.7c0-3,2.4-5.4,5.4-5.4h22.6
	c3,0,5.4,2.4,5.4,5.4v22.7H264.6z"/>
<g>
	<path style="fill:#46A5A0;" d="M186.3,354.1c0,3-2.4,5.4-5.4,5.4h-22.7c-3,0-5.4-2.4-5.4-5.4v-22.7c0-3,2.4-5.4,5.4-5.4h22.7
		c3,0,5.4,2.4,5.4,5.4V354.1z"/>
	<path style="fill:#46A5A0;" d="M225.4,354.1c0,3-2.4,5.4-5.4,5.4h-22.7c-3,0-5.4-2.4-5.4-5.4v-22.7c0-3,2.4-5.4,5.4-5.4H220
		c3,0,5.4,2.4,5.4,5.4V354.1z"/>
	<path style="fill:#46A5A0;" d="M264.6,354.1c0,3-2.4,5.4-5.4,5.4h-22.7c-3,0-5.4-2.4-5.4-5.4v-22.7c0-3,2.4-5.4,5.4-5.4h22.6
		c3,0,5.4,2.4,5.4,5.4v22.7H264.6z"/>
	<path style="fill:#46A5A0;" d="M186.3,314.9c0,3-2.4,5.4-5.4,5.4h-22.7c-3,0-5.4-2.4-5.4-5.4v-22.7c0-3,2.4-5.4,5.4-5.4h22.7
		c3,0,5.4,2.4,5.4,5.4V314.9z"/>
	<path style="fill:#46A5A0;" d="M225.4,314.9c0,3-2.4,5.4-5.4,5.4h-22.7c-3,0-5.4-2.4-5.4-5.4v-22.7c0-3,2.4-5.4,5.4-5.4H220
		c3,0,5.4,2.4,5.4,5.4V314.9z"/>
	<path style="fill:#46A5A0;" d="M264.6,314.9c0,3-2.4,5.4-5.4,5.4h-22.7c-3,0-5.4-2.4-5.4-5.4v-22.7c0-3,2.4-5.4,5.4-5.4h22.6
		c3,0,5.4,2.4,5.4,5.4v22.7H264.6z"/>
	<path style="fill:#46A5A0;" d="M186.3,275.8c0,3-2.4,5.4-5.4,5.4h-22.7c-3,0-5.4-2.4-5.4-5.4v-22.7c0-3,2.4-5.4,5.4-5.4h22.7
		c3,0,5.4,2.4,5.4,5.4V275.8z"/>
	<path style="fill:#46A5A0;" d="M225.4,275.8c0,3-2.4,5.4-5.4,5.4h-22.7c-3,0-5.4-2.4-5.4-5.4v-22.7c0-3,2.4-5.4,5.4-5.4H220
		c3,0,5.4,2.4,5.4,5.4V275.8z"/>
	<path style="fill:#46A5A0;" d="M264.6,275.8c0,3-2.4,5.4-5.4,5.4h-22.7c-3,0-5.4-2.4-5.4-5.4v-22.7c0-3,2.4-5.4,5.4-5.4h22.6
		c3,0,5.4,2.4,5.4,5.4v22.7H264.6z"/>
</g>
<g>
	<path style="fill:#777776;" d="M304.3,393.2v-61.8c0-3-2.4-5.5-5.4-5.5h-22.7c-3,0-5.4,2.4-5.4,5.5v61.8c0,3,2.4,5.4,5.4,5.4h22.7
		C301.9,398.7,304.3,396.2,304.3,393.2z"/>
	<path style="fill:#777776;" d="M343.5,354.1c0,3-2.4,5.4-5.4,5.4h-22.7c-3,0-5.4-2.4-5.4-5.4v-22.7c0-3,2.4-5.4,5.4-5.4h22.7
		c3,0,5.4,2.4,5.4,5.4V354.1z"/>
	<path style="fill:#777776;" d="M343.5,393.2c0,3-2.4,5.4-5.4,5.4h-22.7c-3,0-5.4-2.4-5.4-5.4v-22.7c0-3,2.4-5.4,5.4-5.4h22.7
		c3,0,5.4,2.4,5.4,5.4V393.2z"/>
	<path style="fill:#777776;" d="M304.4,314.9c0,3-2.4,5.4-5.4,5.4h-22.7c-3,0-5.5-2.4-5.5-5.4v-22.7c0-3,2.4-5.4,5.5-5.4H299
		c3,0,5.4,2.4,5.4,5.4V314.9z"/>
	<path style="fill:#777776;" d="M343.5,314.9c0,3-2.4,5.4-5.4,5.4h-22.7c-3,0-5.4-2.4-5.4-5.4v-22.7c0-3,2.4-5.4,5.4-5.4h22.7
		c3,0,5.4,2.4,5.4,5.4V314.9z"/>
	<path style="fill:#777776;" d="M304.4,275.8c0,3-2.4,5.4-5.4,5.4h-22.7c-3,0-5.5-2.4-5.5-5.4v-22.7c0-3,2.4-5.4,5.5-5.4H299
		c3,0,5.4,2.4,5.4,5.4V275.8z"/>
	<path style="fill:#777776;" d="M343.5,275.8c0,3-2.4,5.4-5.4,5.4h-22.7c-3,0-5.4-2.4-5.4-5.4v-22.7c0-3,2.4-5.4,5.4-5.4h22.7
		c3,0,5.4,2.4,5.4,5.4V275.8z"/>
	<path style="fill:#777776;" d="M186.3,236.6c0,3-2.4,5.4-5.4,5.4h-22.7c-3,0-5.4-2.4-5.4-5.4v-22.7c0-3,2.4-5.4,5.4-5.4h22.7
		c3,0,5.4,2.4,5.4,5.4V236.6z"/>
	<path style="fill:#777776;" d="M225.4,236.6c0,3-2.4,5.4-5.4,5.4h-22.7c-3,0-5.4-2.4-5.4-5.4v-22.7c0-3,2.4-5.4,5.4-5.4H220
		c3,0,5.4,2.4,5.4,5.4V236.6z"/>
	<path style="fill:#777776;" d="M264.6,236.6c0,3-2.4,5.4-5.4,5.4h-22.7c-3,0-5.4-2.4-5.4-5.4v-22.7c0-3,2.4-5.4,5.4-5.4h22.6
		c3,0,5.4,2.4,5.4,5.4v22.7H264.6z"/>
</g>
<g>
	<path style="fill:#E84849;" d="M304.4,236.6c0,3-2.4,5.4-5.4,5.4h-22.7c-3,0-5.5-2.4-5.5-5.4v-22.7c0-3,2.4-5.4,5.5-5.4H299
		c3,0,5.4,2.4,5.4,5.4V236.6z"/>
	<path style="fill:#E84849;" d="M343.5,236.6c0,3-2.4,5.4-5.4,5.4h-22.7c-3,0-5.4-2.4-5.4-5.4v-22.7c0-3,2.4-5.4,5.4-5.4h22.7
		c3,0,5.4,2.4,5.4,5.4V236.6z"/>
</g>
<path style="opacity:0.15;enable-background:new    ;" d="M159.6,179.8v-72c0-2.8,2.3-5.1,5.1-5.1h73.5l82.2,82.2H164.7
	C161.9,184.8,159.6,182.6,159.6,179.8z"/>
<g>
</g>
<g>
</g>
<g>
</g>
<g>
</g>
<g>
</g>
<g>
</g>
<g>
</g>
<g>
</g>
<g>
</g>
<g>
</g>
<g>
</g>
<g>
</g>
<g>
</g>
<g>
</g>
<g>
</g>
</svg>
