<?xml version="1.0" encoding="utf-8"?>
<!-- Generator: Adobe Illustrator 21.0.2, SVG Export Plug-In . SVG Version: 6.00 Build 0)  -->
<svg version="1.1" id="Layer_1" xmlns="http://www.w3.org/2000/svg" xmlns:xlink="http://www.w3.org/1999/xlink" x="0px" y="0px"
	 viewBox="0 0 512 512" style="enable-background:new 0 0 512 512;" xml:space="preserve">
<style type="text/css">
	.st0{fill:#E5BD47;}
	.st1{fill:#2C363F;}
</style>
<path class="st0" d="M464,383.3c-1.3-3.3-48.7-70-51.3-75.3c-2.7-5.3-62.7-42-68.7-44s-57.3-15.3-63.3-16.7l-80,8.7L130,284.6
	L83.3,328l-46,86.7L26,480l452-4C478,476,465.3,386.6,464,383.3z"/>
<path class="st0" d="M272,222.2c0,10-8.1,18.2-18.2,18.2c-10,0-18.2-8.2-18.2-18.2c0-10.1,8.2-18.2,18.2-18.2
	C263.9,204,272,212.1,272,222.2z"/>
<path class="st1" d="M325.7,173.6c2.3,8.1,6.8,13.8,7.3,14.5l0,0c2,2.4,5,4,8.3,4c5.9,0,10.7-4.8,10.7-10.7c0-2.5-0.9-4.9-2.4-6.7
	l0,0c0,0-2.3-3.1-3.4-7c-1.3-4.6-0.5-7.9,2.7-11.1c8.7-8.7,11.5-20,8.1-31.8c-2.3-7.9-6.8-13.5-7.4-14.3c0,0,0,0,0,0c0,0,0,0,0,0
	l0,0c-2-2.4-4.9-3.9-8.2-3.9c-5.9,0-10.7,4.8-10.7,10.7c0,2.6,0.9,5,2.5,6.8l0,0c0,0,2.3,2.9,3.4,6.7c1.3,4.4,0.5,7.6-2.7,10.8
	C325.1,150.2,322.3,161.6,325.7,173.6z"/>
<path class="st1" d="M237.5,124c3.2,11.9,9.3,20.2,10,21.1l0,0c2,2.6,5,4.2,8.5,4.2c5.9,0,10.7-4.8,10.7-10.7c0-2.4-0.8-4.6-2.2-6.4
	l0,0c0-0.1-4.5-6.1-6.5-14.3c-2.5-9.8-0.5-18.2,6-25.5c11.4-12.9,15-28.7,10.5-45.7c-3.2-12-9.3-20.2-10-21.1l0,0
	c-2-2.5-5-4.2-8.5-4.2c-5.9,0-10.7,4.8-10.7,10.7c0,2.4,0.8,4.6,2.2,6.4l0,0c0,0.1,4.5,6.1,6.5,14.3c2.5,9.8,0.5,18.2-6,25.5
	C236.6,91.1,233,107,237.5,124z"/>
<path class="st1" d="M155,173.6c2.3,8.1,6.8,13.8,7.3,14.5l0,0c2,2.4,5,4,8.3,4c5.9,0,10.7-4.8,10.7-10.7c0-2.5-0.9-4.9-2.4-6.7l0,0
	c0,0-2.3-3.1-3.4-7c-1.3-4.6-0.5-7.9,2.7-11.1c8.7-8.7,11.5-20,8.1-31.8c-2.3-7.9-6.8-13.6-7.4-14.3l0,0c0,0,0,0,0,0l0,0
	c-2-2.4-4.9-3.9-8.2-3.9c-5.9,0-10.7,4.8-10.7,10.7c0,2.6,0.9,5,2.5,6.8l0,0c0,0,2.3,2.9,3.4,6.7c1.3,4.4,0.5,7.6-2.7,10.8
	C154.5,150.2,151.6,161.6,155,173.6z"/>
<path class="st1" d="M512,480c0-5.9-4.8-10.7-10.7-10.7l0,0h-10.7c0-119.6-89.5-218.3-205.2-232.8c1.6-3.8,2.5-8.1,2.5-12.5
	c0-17.7-14.3-32-32-32s-32,14.3-32,32c0,4.4,0.9,8.7,2.5,12.5C110.8,251,21.3,349.7,21.3,469.3H10.7l0,0l0,0
	C4.8,469.3,0,474.1,0,480c0,5.9,4.8,10.7,10.7,10.7l0,0l0,0h490.6l0,0C507.2,490.6,512,485.9,512,480z M256,213.3
	c5.9,0,10.7,4.8,10.7,10.7s-4.8,10.7-10.7,10.7s-10.7-4.8-10.7-10.7S250.1,213.3,256,213.3z M256,288L256,288
	c5.9,0,10.7-4.8,10.7-10.7c0-5.9-4.8-10.7-10.7-10.7l0,0l0,0l0,0l0,0c-111.9,0-202.7,90.7-202.7,202.7H42.7c0-28.8,5.6-56.7,16.7-83
	c10.8-25.4,26.1-48.2,45.7-67.8c19.6-19.6,42.4-35,67.8-45.7c26.3-11.1,54.2-16.8,83-16.8s56.7,5.6,83,16.8
	c25.4,10.8,48.2,26.1,67.8,45.7c19.6,19.6,35,42.4,45.7,67.8c11.1,26.3,16.8,54.2,16.8,83H74.7c0-24.5,4.8-48.2,14.2-70.6
	c9.1-21.6,22.2-41,38.9-57.6c16.7-16.7,36-29.7,57.6-38.9C207.8,292.8,231.5,288,256,288z"/>
</svg>
